<svg width="1366" height="376" viewBox="0 0 1366 376" fill="none" xmlns="http://www.w3.org/2000/svg">
<path fill-rule="evenodd" clip-rule="evenodd" d="M0 51.6641V59.318V376H1366V59.3181V51.6641V17.45C1362.92 17.1124 1359.61 16.7747 1356.3 17.45C1350.86 18.6082 1345.22 19.2715 1339.55 19.9391C1331.17 20.926 1322.71 21.9225 1314.66 24.5406C1308.51 26.3976 1300.94 25.5535 1294.08 24.2029C1291 23.5276 1287.69 23.19 1284.38 23.5276C1280.17 24.0735 1276.27 22.8542 1272.44 21.6534C1271.53 21.3688 1270.62 21.0852 1269.71 20.8265C1263.33 19.1382 1257.17 19.1382 1250.55 19.6447C1247.87 19.7573 1245.19 19.7197 1242.51 19.6822C1241.17 19.6635 1239.83 19.6447 1238.48 19.6447C1235.17 19.6447 1232.1 19.8135 1230.2 22.6835C1228.78 24.8782 1225.71 24.5406 1222.87 24.0341L1222.14 23.8883C1218.15 23.095 1214.33 22.3361 1210.1 22.1771C1199.92 21.5018 1191.41 24.2029 1182.89 27.4106C1180.05 28.5923 1176.97 29.7741 1173.66 28.5923C1169.09 26.8438 1164.51 27.4294 1159.94 28.015C1157.89 28.2775 1155.84 28.5401 1153.79 28.5923C1146.02 28.7553 1138.47 29.5481 1130.72 30.3625L1129.9 30.4494C1126.35 30.787 1122.32 29.9429 1119.25 28.93C1113.05 26.8661 1106.67 27.3768 1100.43 27.8767C1099.52 27.9493 1098.62 28.0216 1097.72 28.0858C1086.13 28.93 1075.01 27.917 1064.84 24.2029C1062.87 23.5008 1060.84 23.3918 1058.81 23.283C1056.93 23.1825 1055.06 23.0821 1053.24 22.5147C1044.49 19.8135 1035.74 17.6188 1026.75 15.593C1023.71 14.8192 1020.68 15.6059 1017.64 16.3925C1017.36 16.464 1017.09 16.5356 1016.81 16.6059C1014.89 17.1124 1013.04 17.7556 1011.19 18.3988C1006.87 19.8996 1002.55 21.4005 997.412 21.1641C995.046 21.0797 992.74 20.9531 990.433 20.8265C988.126 20.6998 985.82 20.5732 983.454 20.4888C983.086 20.4626 982.718 20.4282 982.352 20.3939C980.358 20.2074 978.391 20.0234 976.593 21.1641C976.12 21.3329 975.174 21.5017 974.7 21.3329C969.35 19.742 963.626 19.617 957.939 19.4928C954.574 19.4192 951.221 19.346 947.967 18.9694C947.66 18.9694 947.328 18.9516 946.987 18.9334C946.278 18.8954 945.531 18.8554 944.892 18.9694C932.826 21.8394 921.944 19.9823 912.48 14.4112C910.147 13.0964 907.43 12.2822 904.728 11.4724C902.227 10.7225 899.737 9.97641 897.576 8.84003C897.485 8.80753 897.385 8.76876 897.281 8.72856C896.847 8.55996 896.348 8.36607 896.157 8.50239C890.562 10.3559 886.318 8.47665 882.141 6.62725C881.372 6.2868 880.605 5.94736 879.833 5.6324C871.079 2.25594 861.853 1.24301 853.336 4.28182C847.895 6.13887 844.109 5.97004 839.615 4.11299C835.318 2.3882 830.563 2.02309 825.828 1.6594C822.22 1.38233 818.623 1.10608 815.247 0.230064C812.799 -0.441895 810.8 0.490889 809.013 1.32514C808.555 1.53887 808.111 1.74614 807.677 1.91829C800.816 5.12592 793.009 6.30768 784.965 6.64533C782.363 6.64533 780.234 7.32062 778.577 8.6712C774.082 12.0477 768.878 13.0606 763.2 11.2035C762.835 11.0993 762.471 10.9931 762.109 10.8872C757.772 9.62059 753.59 8.39919 749.005 11.2035C747.685 12.1459 745.545 11.481 743.92 10.976C743.798 10.9381 743.679 10.9012 743.564 10.8659C737.176 9.17767 730.552 8.50238 723.928 9.00885C721.362 9.2123 718.968 9.90613 716.538 10.6102C714.936 11.0745 713.318 11.5434 711.626 11.8788C708.314 12.5541 705.475 12.5541 701.926 11.5412C688.441 7.32061 674.483 4.11298 659.579 3.77533C655.557 3.60651 652.008 3.26887 648.223 2.25593C643.204 0.763518 638.369 1.90972 633.72 3.01209C633.11 3.15673 632.503 3.30062 631.899 3.43769C631.347 3.55023 630.822 3.73781 630.296 3.92539C629.244 4.30055 628.193 4.67572 626.931 4.45062C620.603 3.47421 614.522 4.52726 608.509 5.56844C606.205 5.96743 603.911 6.36468 601.617 6.64532C600.198 6.81414 599.015 6.81414 597.595 6.81414C594.047 6.64532 590.735 6.98296 587.186 8.16472C581.009 10.2391 574.413 11.3179 567.827 12.395C565.837 12.7204 563.848 13.0457 561.872 13.3982C558.751 13.8671 556.428 13.3592 554.033 12.8354C552.978 12.6049 551.91 12.3713 550.753 12.2165C545.749 11.6451 540.744 12.4033 535.739 13.1615C534.83 13.2993 533.92 13.4372 533.01 13.567C532.311 13.6916 531.613 13.8213 530.914 13.9511C525.932 14.8765 520.927 15.806 515.74 14.9176C514.557 14.7488 513.137 14.7488 512.191 15.0864C502.728 18.9694 492.318 19.4758 481.672 19.8135C480.153 19.8135 478.922 20.5553 477.609 21.3466C476.265 22.1569 474.834 23.0191 472.919 23.1899C472.335 23.1899 471.751 23.3042 471.184 23.4152C470.372 23.5741 469.594 23.7264 468.897 23.5276C465.427 22.5548 461.827 22.6012 458.233 22.6475C454.967 22.6896 451.706 22.7316 448.552 22.0082C441.45 20.4315 434.243 20.6579 427.071 20.8831C423.492 20.9955 419.921 21.1077 416.377 20.9952C415.825 20.939 415.299 20.939 414.791 20.939C413.775 20.939 412.828 20.939 411.882 20.4888C408.097 18.8005 404.548 18.1253 401.472 21.3329C400.526 22.3458 398.397 22.8523 396.741 22.177C393.192 20.9952 389.644 21.3329 386.095 21.6705C385.867 21.6705 385.614 21.7055 385.352 21.7417C384.801 21.8179 384.21 21.8995 383.729 21.6705C379.116 19.2562 373.702 18.8393 368.334 18.4259C365.444 18.2033 362.567 17.9817 359.835 17.45C350.845 15.5929 341.855 15.5929 332.628 16.2682C330.14 16.4296 327.652 16.0894 325.138 15.7457C322.393 15.3704 319.618 14.9909 316.778 15.2553C312.874 15.5929 308.911 15.8039 304.949 16.015C300.986 16.226 297.023 16.437 293.12 16.7747C289.808 16.9435 287.205 16.9435 284.13 15.7617C279.872 13.9047 275.14 13.0606 270.172 13.7359C268.043 14.0735 266.15 14.4111 264.731 15.7617C261.655 18.4629 257.633 19.307 253.138 19.1382C250.418 19.0538 247.697 18.8849 244.976 18.7161C242.256 18.5473 239.535 18.3785 236.814 18.2941C234.685 18.2941 232.793 17.9564 231.136 16.9435C229.221 15.7282 226.922 15.8798 224.412 16.0454C224.132 16.0639 223.85 16.0825 223.566 16.0994C215.759 16.6058 208.898 17.45 204.64 23.0211C203.93 24.034 200.145 24.5405 198.016 24.3717C191.968 23.737 186.054 24.2476 180.173 24.7553C178.232 24.9229 176.295 25.0901 174.358 25.2158C172.803 25.3123 171.249 25.3536 169.694 25.395C165.807 25.4983 161.921 25.6017 158.034 26.5664C156.141 27.0728 153.539 27.0728 151.883 26.3976C144.003 23.0506 136.124 24.4812 128.362 25.8903C126.336 26.2581 124.318 26.6245 122.311 26.904C114.977 27.917 108.353 27.917 101.965 25.3846C97.7067 23.6964 93.6849 23.0211 88.9533 23.8652C88.5061 23.9428 88.0577 24.0209 87.6082 24.0992C79.2584 25.5527 70.5262 27.0728 62.2201 27.0728C56.9169 27.0728 52.487 28.2413 48.0406 29.4141C45.9412 29.9679 43.8382 30.5226 41.6378 30.9558C35.4868 32.1375 30.7552 30.6181 26.2602 28.2546C23.6579 26.904 21.0554 26.2287 17.7433 25.8911C13.4556 25.538 9.39776 24.6107 5.32944 23.6811C3.56152 23.2771 1.79162 22.8726 4.50874e-06 22.5146L0 51.6641Z" fill="#FFCB66"/>
</svg>
