<svg width="368" height="257" viewBox="0 0 368 257" fill="none" xmlns="http://www.w3.org/2000/svg">
<path d="M111.063 117.282C112.374 117.283 113.676 117.056 114.91 116.612C117.887 118.891 121.532 120.126 125.281 120.126C129.031 120.126 132.676 118.891 135.653 116.612C137.192 117.165 138.832 117.38 140.461 117.242C142.09 117.104 143.67 116.616 145.094 115.812C146.518 115.008 147.752 113.906 148.711 112.582C149.671 111.258 150.333 109.743 150.654 108.14C150.975 106.536 150.946 104.883 150.57 103.291C150.194 101.7 149.48 100.209 148.475 98.9186C147.47 97.6285 146.2 96.5702 144.749 95.8157C143.298 95.0612 141.702 94.6284 140.069 94.5467C138.572 91.9486 136.417 89.7907 133.821 88.2904C131.225 86.79 128.28 86 125.281 86C122.283 86 119.338 86.79 116.742 88.2904C114.146 89.7907 111.991 91.9486 110.494 94.5467C107.53 94.695 104.741 95.9958 102.723 98.1714C100.705 100.347 99.6168 103.225 99.6911 106.192C99.7653 109.159 100.996 111.979 103.12 114.051C105.245 116.123 108.095 117.282 111.063 117.282ZM111.063 100.22C111.315 100.219 111.567 100.236 111.817 100.27C112.435 100.357 113.065 100.239 113.609 99.9329C114.153 99.6268 114.581 99.1502 114.827 98.5766C115.705 96.532 117.164 94.7898 119.022 93.5655C120.88 92.3412 123.056 91.6887 125.281 91.6887C127.507 91.6887 129.683 92.3412 131.541 93.5655C133.399 94.7898 134.857 96.532 135.735 98.5766C135.982 99.1502 136.41 99.6268 136.954 99.9329C137.498 100.239 138.128 100.357 138.746 100.27C138.996 100.236 139.248 100.219 139.5 100.22C141.009 100.22 142.455 100.819 143.522 101.886C144.588 102.952 145.188 104.399 145.188 105.907C145.188 107.416 144.588 108.863 143.522 109.929C142.455 110.996 141.009 111.595 139.5 111.595C138.492 111.597 137.503 111.328 136.635 110.816C136.097 110.497 135.47 110.365 134.85 110.438C134.229 110.512 133.651 110.788 133.203 111.223C131.081 113.285 128.24 114.439 125.281 114.439C122.323 114.439 119.481 113.285 117.36 111.223C116.912 110.788 116.333 110.512 115.713 110.438C115.093 110.365 114.466 110.497 113.928 110.816C113.06 111.328 112.07 111.597 111.063 111.595C109.554 111.595 108.108 110.996 107.041 109.929C105.974 108.863 105.375 107.416 105.375 105.907C105.375 104.399 105.974 102.952 107.041 101.886C108.108 100.819 109.554 100.22 111.063 100.22Z" fill="white"/>
<path d="M179.313 97.3762C180.841 97.3762 181.373 97.9656 181.69 98.5422C181.958 99.0637 182.117 99.6347 182.156 100.22C182.153 100.974 182.448 101.699 182.979 102.235C183.51 102.771 184.231 103.074 184.986 103.078C185.74 103.082 186.465 102.786 187.001 102.256C187.537 101.725 187.84 101.003 187.844 100.249C187.879 99.6541 188.038 99.0729 188.31 98.5429C188.628 97.9656 189.159 97.3762 190.688 97.3762C191.442 97.3762 192.165 97.0766 192.699 96.5433C193.232 96.01 193.531 95.2867 193.531 94.5325C193.531 93.7783 193.232 93.0549 192.699 92.5216C192.165 91.9883 191.442 91.6887 190.688 91.6887C188.196 91.6887 186.336 92.4971 185 93.6868C183.664 92.4971 181.805 91.6887 179.313 91.6887C178.558 91.6887 177.835 91.9883 177.302 92.5216C176.769 93.0549 176.469 93.7783 176.469 94.5325C176.469 95.2867 176.769 96.01 177.302 96.5433C177.835 97.0766 178.558 97.3762 179.313 97.3762Z" fill="white"/>
<path d="M165.094 116.437C163.758 115.247 161.898 114.439 159.406 114.439C158.652 114.439 157.929 114.738 157.396 115.272C156.862 115.805 156.563 116.528 156.563 117.282C156.563 118.037 156.862 118.76 157.396 119.293C157.929 119.827 158.652 120.126 159.406 120.126C160.935 120.126 161.466 120.716 161.784 121.292C162.052 121.814 162.211 122.385 162.25 122.97C162.246 123.724 162.542 124.449 163.073 124.985C163.603 125.521 164.325 125.824 165.079 125.828C165.834 125.832 166.558 125.536 167.094 125.006C167.63 124.475 167.934 123.753 167.938 122.999C167.973 122.404 168.131 121.823 168.404 121.293C168.721 120.716 169.252 120.127 170.781 120.127C171.536 120.127 172.259 119.827 172.792 119.294C173.326 118.761 173.625 118.037 173.625 117.283C173.625 116.529 173.326 115.806 172.792 115.272C172.259 114.739 171.536 114.439 170.781 114.439C168.29 114.439 166.43 115.247 165.094 116.437Z" fill="white"/>
<path d="M185 256.626C207.626 256.626 229.326 247.638 245.325 231.639C261.324 215.64 270.313 193.94 270.313 171.314C270.313 170.56 270.013 169.836 269.48 169.303C268.946 168.77 268.223 168.47 267.469 168.47H244.719V155.902C246.947 156.696 249.296 157.099 251.661 157.095C261.946 157.095 270.313 149.637 270.313 140.47C270.3 136.989 269.105 133.615 266.924 130.902C268.158 128.835 268.809 126.472 268.808 124.064C268.808 118.006 264.764 112.707 258.599 110.482C255.981 104.37 249.332 100.22 241.875 100.22C234.419 100.22 227.769 104.37 225.152 110.482C221.687 111.678 218.747 114.045 216.839 117.176C214.17 113.759 209.747 111.595 204.906 111.595C198.957 111.595 193.638 114.865 191.431 119.709C186.525 121.581 183.326 125.872 183.326 130.773C183.325 132.613 183.786 134.424 184.669 136.039C183.045 138.201 182.164 140.83 182.156 143.534C182.156 151.011 188.948 157.095 197.296 157.095C198.909 157.097 200.515 156.867 202.063 156.41V168.47H189.296L171.635 144.059C170.751 142.858 169.606 141.872 168.287 141.176C166.969 140.48 165.509 140.091 164.019 140.039C162.529 139.986 161.046 140.272 159.681 140.873C158.317 141.475 157.106 142.378 156.14 143.514L148.004 132.771C146.989 131.488 145.697 130.452 144.224 129.74C142.752 129.028 141.138 128.658 139.502 128.658C137.866 128.658 136.252 129.028 134.78 129.74C133.307 130.452 132.015 131.488 131 132.771L103.961 168.47H102.531C101.777 168.47 101.054 168.77 100.521 169.303C99.9873 169.836 99.6877 170.56 99.6877 171.314C99.6877 193.94 108.676 215.64 124.675 231.639C140.674 247.638 162.374 256.626 185 256.626ZM213.536 209.317C211.287 199.559 205.441 192.011 197.495 188.606C186.033 183.694 180.634 177.83 178.206 174.157H227.199C228.604 174.658 234.085 176.906 236.761 182.269C238.954 186.665 238.823 192.211 236.37 198.753C231.308 212.251 231.373 221.746 236.767 231.819C227.515 239.781 216.543 245.488 204.713 248.491C213.138 236.061 216.426 221.856 213.536 209.317ZM241.304 227.617C241.24 227.681 241.174 227.742 241.11 227.806C236.667 218.567 237.964 210.698 241.694 200.75C244.737 192.634 244.778 185.538 241.813 179.657C240.773 177.608 239.395 175.749 237.737 174.157H264.575C263.912 194.291 255.589 213.413 241.304 227.617ZM222.425 133.191C222.955 132.69 223.273 132.003 223.312 131.274C223.351 130.545 223.108 129.829 222.633 129.275C221.359 127.836 220.647 125.985 220.631 124.064C220.631 120.154 223.622 116.719 228.075 115.52C228.539 115.396 228.964 115.155 229.31 114.821C229.656 114.488 229.912 114.072 230.053 113.612C231.451 109.076 236.313 105.907 241.875 105.907C247.437 105.907 252.299 109.076 253.697 113.612C253.839 114.072 254.094 114.488 254.44 114.821C254.786 115.155 255.211 115.396 255.676 115.52C260.128 116.719 263.12 120.152 263.12 124.064C263.103 125.985 262.392 127.836 261.117 129.275C260.643 129.829 260.4 130.545 260.439 131.274C260.477 132.003 260.795 132.69 261.326 133.191C262.346 134.113 263.165 135.235 263.733 136.487C264.301 137.739 264.604 139.095 264.625 140.47C264.625 146.502 258.81 151.407 251.661 151.407C249.24 151.423 246.854 150.834 244.719 149.694V144.398L251.984 139.554C252.607 139.134 253.038 138.484 253.184 137.747C253.329 137.009 253.177 136.245 252.76 135.619C252.343 134.994 251.695 134.559 250.959 134.41C250.222 134.26 249.456 134.409 248.829 134.822L244.719 137.563V131.501C244.719 130.747 244.419 130.024 243.886 129.49C243.353 128.957 242.629 128.657 241.875 128.657C241.121 128.657 240.398 128.957 239.864 129.49C239.331 130.024 239.031 130.747 239.031 131.501V137.563L234.921 134.823C234.611 134.613 234.262 134.467 233.895 134.393C233.527 134.319 233.149 134.318 232.781 134.39C232.414 134.463 232.064 134.607 231.752 134.815C231.441 135.023 231.173 135.291 230.965 135.603C230.757 135.914 230.613 136.264 230.541 136.632C230.469 137 230.47 137.378 230.544 137.745C230.619 138.113 230.765 138.461 230.975 138.772C231.184 139.082 231.453 139.349 231.766 139.555L239.031 144.398V149.694C236.896 150.834 234.51 151.423 232.089 151.407C224.941 151.407 219.125 146.502 219.125 140.47C219.146 139.095 219.45 137.739 220.017 136.487C220.585 135.235 221.404 134.113 222.425 133.191ZM197.296 151.407C192.084 151.407 187.844 147.875 187.844 143.534C187.86 142.551 188.079 141.582 188.486 140.687C188.894 139.792 189.481 138.991 190.212 138.333C190.742 137.832 191.06 137.146 191.099 136.417C191.139 135.688 190.896 134.972 190.422 134.417C189.529 133.412 189.028 132.118 189.013 130.773C189.013 128.019 191.153 125.594 194.337 124.739C194.802 124.614 195.227 124.373 195.573 124.039C195.919 123.705 196.175 123.289 196.317 122.829C197.323 119.564 200.854 117.282 204.906 117.282C208.959 117.282 212.49 119.564 213.496 122.828C213.61 123.197 213.799 123.54 214.051 123.834C214.303 124.127 214.612 124.367 214.959 124.537C215.036 126.781 215.678 128.97 216.826 130.9C214.582 133.669 213.383 137.138 213.44 140.702C213.496 144.266 214.804 147.696 217.135 150.392C215.688 151.064 214.112 151.411 212.517 151.407C210.866 151.417 209.235 151.047 207.75 150.325V137.189C207.75 136.435 207.451 135.711 206.917 135.178C206.384 134.645 205.661 134.345 204.906 134.345C204.152 134.345 203.429 134.645 202.896 135.178C202.362 135.711 202.063 136.435 202.063 137.189V141.119L200.491 140.333C199.817 140.002 199.04 139.952 198.329 140.192C197.618 140.432 197.031 140.943 196.695 141.614C196.36 142.285 196.303 143.062 196.537 143.775C196.772 144.488 197.279 145.079 197.947 145.42L202.063 147.477V150.325C200.578 151.047 198.947 151.417 197.296 151.407ZM207.75 156.41C209.298 156.867 210.903 157.097 212.517 157.095C215.802 157.105 219.014 156.128 221.738 154.291C224.872 156.143 228.449 157.111 232.089 157.095C234.455 157.099 236.803 156.696 239.031 155.902V168.47H207.75V156.41ZM163.672 145.72C164.324 145.71 164.969 145.857 165.553 146.148C166.136 146.439 166.642 146.866 167.026 147.393L182.276 168.47H145.068L160.317 147.393C160.702 146.866 161.207 146.439 161.791 146.148C162.375 145.857 163.02 145.71 163.672 145.72ZM135.534 136.204C136.018 135.622 136.625 135.154 137.311 134.833C137.996 134.512 138.744 134.345 139.502 134.345C140.259 134.345 141.007 134.512 141.692 134.833C142.378 135.154 142.985 135.622 143.469 136.204L152.636 148.308L138.048 168.47H111.096L135.534 136.204ZM171.684 174.157C173.548 178.174 179.255 186.977 195.255 193.834C201.514 196.516 206.157 202.624 207.994 210.594C210.905 223.225 206.555 237.936 196.356 250.136C192.594 250.67 188.799 250.939 185 250.939C164.375 250.939 144.553 242.936 129.711 228.614C114.868 214.292 106.162 194.77 105.425 174.157H171.684Z" fill="white"/>
<mask id="path-2-inside-1" fill="white">
<path fill-rule="evenodd" clip-rule="evenodd" d="M246.61 24.5316C246.61 25.3229 247.25 25.9677 248.036 25.9677C248.821 25.9677 249.461 25.3229 249.461 24.5316C249.52 18.9043 254.059 14.3908 259.646 14.4201C260.431 14.4201 261.071 13.7753 261.071 12.9839C261.071 12.1926 260.431 11.5478 259.646 11.5478C254.059 11.5771 249.52 7.06355 249.461 1.43626C249.461 0.644921 248.821 0.000122674 248.036 0.00012264C247.25 0.000122606 246.61 0.644921 246.61 1.43626C246.552 7.06355 242.012 11.5771 236.426 11.5478C235.64 11.5478 235 12.1926 235 12.9839C235 13.7753 235.64 14.4201 236.426 14.4201C242.012 14.3908 246.552 18.9043 246.61 24.5316ZM257.492 80.4235C257.114 80.4235 256.794 80.1011 256.794 79.7201C256.765 76.9065 254.495 74.6497 251.702 74.679C251.324 74.679 251.004 74.3566 251.004 73.9756C251.004 73.5946 251.324 73.2722 251.702 73.2722C254.495 73.3015 256.765 71.0447 256.794 68.2311C256.794 67.85 257.114 67.5276 257.492 67.5276C257.871 67.5276 258.191 67.85 258.191 68.2311C258.22 71.0154 260.489 73.3015 263.283 73.2722C263.661 73.2722 263.981 73.5946 263.981 73.9756C263.981 74.3566 263.661 74.679 263.283 74.679C260.489 74.6497 258.22 76.9065 258.191 79.7201C258.191 80.1011 257.871 80.4235 257.492 80.4235ZM360.41 74.9428C360.41 75.3238 360.73 75.6462 361.108 75.6462C361.487 75.6462 361.807 75.3238 361.807 74.9428C361.836 72.1291 364.105 69.8724 366.899 69.9017C367.277 69.9017 367.597 69.5793 367.597 69.1983C367.597 68.8172 367.277 68.4948 366.899 68.4948C364.105 68.5242 361.836 66.2381 361.807 63.4537C361.807 63.0727 361.487 62.7503 361.108 62.7503C360.73 62.7503 360.41 63.0727 360.41 63.4537C360.381 66.2674 358.111 68.5242 355.318 68.4948C354.94 68.4948 354.62 68.8172 354.62 69.1983C354.62 69.5793 354.94 69.9017 355.318 69.9017C358.111 69.8724 360.381 72.1291 360.41 74.9428ZM329.45 84.1458C329.45 83.4423 330.032 82.8562 330.731 82.8562C331.429 82.8562 332.011 83.4423 332.011 84.1458C332.04 89.2455 336.172 93.3194 341.206 93.2901C341.904 93.2901 342.486 93.8763 342.486 94.5797C342.486 95.2831 341.904 95.8693 341.206 95.8693C336.172 95.84 332.04 99.9432 332.011 105.014C332.011 105.717 331.429 106.303 330.731 106.303C330.032 106.303 329.45 105.717 329.45 105.014C329.421 99.9139 325.289 95.84 320.256 95.8693C319.557 95.8693 318.975 95.2831 318.975 94.5797C318.975 93.8763 319.557 93.2901 320.256 93.2901C325.289 93.3194 329.421 89.2162 329.45 84.1458ZM294.883 25.9677C293.428 25.9677 292.264 27.1401 292.264 28.6055C292.177 39.0102 283.767 47.3632 273.438 47.3046C271.983 47.3046 270.819 48.4769 270.819 49.9424C270.819 51.4078 271.983 52.5802 273.438 52.5802C283.767 52.5215 292.177 60.8745 292.264 71.2792C292.264 72.7446 293.428 73.917 294.883 73.917C296.337 73.917 297.501 72.7446 297.501 71.2792C297.589 60.8745 305.998 52.5215 316.327 52.5802C317.782 52.5802 318.946 51.4078 318.946 49.9424C318.946 48.4769 317.782 47.3046 316.327 47.3046C305.998 47.3632 297.589 38.9809 297.501 28.6055C297.501 27.1401 296.337 25.9677 294.883 25.9677Z"/>
</mask>
<path d="M246.61 24.5316L251.61 24.5316L251.61 24.5058L251.61 24.4799L246.61 24.5316ZM249.461 24.5316L244.462 24.4799L244.461 24.5058L244.461 24.5316L249.461 24.5316ZM259.646 14.4201L259.619 19.42L259.632 19.4201L259.646 19.4201L259.646 14.4201ZM259.646 11.5478L259.646 6.54781L259.632 6.54781L259.619 6.54788L259.646 11.5478ZM249.461 1.43626L244.461 1.43626L244.461 1.46211L244.462 1.48796L249.461 1.43626ZM246.61 1.43626L251.61 1.48796L251.61 1.46211L251.61 1.43626L246.61 1.43626ZM236.426 11.5478L236.452 6.54787L236.439 6.54781L236.426 6.54781L236.426 11.5478ZM236.426 14.4201L236.426 19.4201L236.439 19.4201L236.452 19.42L236.426 14.4201ZM256.794 79.7201L261.794 79.7201L261.794 79.6943L261.794 79.6684L256.794 79.7201ZM251.702 74.679L251.702 79.679L251.728 79.679L251.754 79.6787L251.702 74.679ZM251.702 73.2722L251.754 68.2725L251.728 68.2722L251.702 68.2722L251.702 73.2722ZM256.794 68.2311L261.794 68.2828L261.794 68.2569L261.794 68.2311L256.794 68.2311ZM258.191 68.2311L253.191 68.2311L253.191 68.2572L253.191 68.2833L258.191 68.2311ZM263.283 73.2722L263.283 68.2722L263.256 68.2722L263.23 68.2725L263.283 73.2722ZM263.283 74.679L263.23 79.6787L263.256 79.679L263.283 79.679L263.283 74.679ZM258.191 79.7201L253.191 79.6684L253.191 79.6943L253.191 79.7201L258.191 79.7201ZM360.41 74.9428L365.41 74.9428L365.41 74.9169L365.41 74.8911L360.41 74.9428ZM361.807 74.9428L356.807 74.8911L356.807 74.9169L356.807 74.9428L361.807 74.9428ZM366.899 69.9017L366.846 74.9014L366.873 74.9017L366.899 74.9017L366.899 69.9017ZM366.899 68.4948L366.899 63.4948L366.873 63.4948L366.846 63.4951L366.899 68.4948ZM361.807 63.4537L356.807 63.4537L356.807 63.4799L356.807 63.506L361.807 63.4537ZM360.41 63.4537L365.41 63.5054L365.41 63.4796L365.41 63.4537L360.41 63.4537ZM355.318 68.4948L355.37 63.4951L355.344 63.4948L355.318 63.4948L355.318 68.4948ZM355.318 69.9017L355.318 74.9017L355.344 74.9017L355.37 74.9014L355.318 69.9017ZM329.45 84.1458L334.45 84.1744L334.45 84.1601L334.45 84.1458L329.45 84.1458ZM332.011 84.1458L327.011 84.1458L327.011 84.16L327.011 84.1743L332.011 84.1458ZM341.206 93.2901L341.206 88.2901L341.191 88.2901L341.177 88.2902L341.206 93.2901ZM341.206 95.8693L341.177 100.869L341.191 100.869L341.206 100.869L341.206 95.8693ZM332.011 105.014L327.011 104.985L327.011 104.999L327.011 105.014L332.011 105.014ZM329.45 105.014L334.45 105.014L334.45 104.999L334.45 104.985L329.45 105.014ZM320.256 95.8693L320.256 100.869L320.27 100.869L320.285 100.869L320.256 95.8693ZM320.256 93.2901L320.285 88.2902L320.27 88.2901L320.256 88.2901L320.256 93.2901ZM292.264 28.6055L297.264 28.6475L297.264 28.6265L297.264 28.6055L292.264 28.6055ZM273.438 47.3046L273.466 42.3046L273.452 42.3046L273.438 42.3046L273.438 47.3046ZM273.438 52.5802L273.438 57.5802L273.452 57.5802L273.466 57.5801L273.438 52.5802ZM292.264 71.2792L297.264 71.2792L297.264 71.2582L297.264 71.2372L292.264 71.2792ZM297.501 71.2792L292.502 71.2372L292.501 71.2582L292.501 71.2792L297.501 71.2792ZM316.327 52.5802L316.299 57.5801L316.313 57.5802L316.327 57.5802L316.327 52.5802ZM316.327 47.3046L316.327 42.3046L316.313 42.3046L316.299 42.3046L316.327 47.3046ZM297.501 28.6055L292.501 28.6055L292.501 28.6266L292.502 28.6476L297.501 28.6055ZM248.036 20.9677C250.046 20.9677 251.61 22.5957 251.61 24.5316L241.61 24.5316C241.61 28.0502 244.455 30.9677 248.036 30.9677L248.036 20.9677ZM244.461 24.5316C244.461 22.5957 246.026 20.9677 248.036 20.9677L248.036 30.9677C251.617 30.9677 254.461 28.0502 254.461 24.5316L244.461 24.5316ZM259.672 9.42014C251.292 9.37617 244.548 16.1432 244.462 24.4799L254.461 24.5833C254.491 21.6654 256.826 19.4053 259.619 19.42L259.672 9.42014ZM256.071 12.9839C256.071 11.0481 257.636 9.42007 259.646 9.42007L259.646 19.4201C263.227 19.4201 266.071 16.5025 266.071 12.9839L256.071 12.9839ZM259.646 16.5478C257.636 16.5478 256.071 14.9199 256.071 12.9839L266.071 12.9839C266.071 9.46529 263.227 6.54781 259.646 6.54781L259.646 16.5478ZM244.462 1.48796C244.548 9.82468 251.292 16.5917 259.672 16.5477L259.619 6.54788C256.826 6.56253 254.491 4.30243 254.461 1.38455L244.462 1.48796ZM248.036 5.00012C246.026 5.00012 244.461 3.37214 244.461 1.43626L254.461 1.43626C254.461 -2.0823 251.617 -4.99988 248.036 -4.99988L248.036 5.00012ZM251.61 1.43626C251.61 3.37215 250.046 5.00012 248.036 5.00012L248.036 -4.99988C244.455 -4.99988 241.61 -2.08231 241.61 1.43626L251.61 1.43626ZM236.4 16.5477C244.779 16.5917 251.523 9.82468 251.61 1.48796L241.61 1.38455C241.58 4.30243 239.246 6.56253 236.452 6.54787L236.4 16.5477ZM240 12.9839C240 14.9199 238.436 16.5478 236.426 16.5478L236.426 6.54781C232.845 6.54781 230 9.46529 230 12.9839L240 12.9839ZM236.426 9.42007C238.436 9.42007 240 11.0481 240 12.9839L230 12.9839C230 16.5024 232.845 19.4201 236.426 19.4201L236.426 9.42007ZM251.61 24.4799C251.523 16.1432 244.779 9.37617 236.4 9.42014L236.452 19.42C239.246 19.4053 241.58 21.6654 241.61 24.5833L251.61 24.4799ZM251.794 79.7201C251.794 82.8284 254.319 85.4235 257.492 85.4235L257.492 75.4235C259.91 75.4235 261.794 77.3739 261.794 79.7201L251.794 79.7201ZM251.754 79.6787C251.763 79.6786 251.765 79.6794 251.762 79.6789C251.76 79.6785 251.758 79.6778 251.756 79.677C251.752 79.6755 251.756 79.6765 251.764 79.6843C251.772 79.6923 251.78 79.7026 251.784 79.7139C251.787 79.7192 251.789 79.7255 251.791 79.7335C251.792 79.7412 251.794 79.7535 251.794 79.7718L261.794 79.6684C261.737 74.1506 257.261 69.6204 251.649 69.6793L251.754 79.6787ZM246.004 73.9756C246.004 77.0838 248.528 79.679 251.702 79.679L251.702 69.679C254.119 69.679 256.004 71.6294 256.004 73.9756L246.004 73.9756ZM251.702 68.2722C248.528 68.2722 246.004 70.8673 246.004 73.9756L256.004 73.9756C256.004 76.3218 254.119 78.2722 251.702 78.2722L251.702 68.2722ZM251.794 68.1794C251.794 68.1977 251.792 68.21 251.791 68.2177C251.789 68.2257 251.787 68.232 251.784 68.2373C251.78 68.2486 251.772 68.2589 251.764 68.2669C251.756 68.2747 251.752 68.2757 251.756 68.2742C251.758 68.2734 251.76 68.2726 251.762 68.2723C251.765 68.2718 251.763 68.2725 251.754 68.2725L251.649 78.2719C257.261 78.3308 261.737 73.8006 261.794 68.2828L251.794 68.1794ZM257.492 62.5276C254.319 62.5276 251.794 65.1228 251.794 68.2311L261.794 68.2311C261.794 70.5773 259.91 72.5277 257.492 72.5276L257.492 62.5276ZM263.191 68.2311C263.191 65.1228 260.666 62.5277 257.492 62.5276L257.492 72.5276C255.075 72.5276 253.191 70.5773 253.191 68.2311L263.191 68.2311ZM263.23 68.2725C263.227 68.2725 263.228 68.2722 263.233 68.2732C263.238 68.2741 263.241 68.2753 263.243 68.2762C263.247 68.2778 263.24 68.2754 263.227 68.2629C263.215 68.2502 263.205 68.2351 263.199 68.2212C263.194 68.2103 263.191 68.1984 263.19 68.1788L253.191 68.2833C253.248 73.7521 257.704 78.331 263.335 78.2719L263.23 68.2725ZM268.981 73.9756C268.981 70.8673 266.456 68.2722 263.283 68.2722L263.283 78.2722C260.866 78.2722 258.981 76.3218 258.981 73.9756L268.981 73.9756ZM263.283 79.679C266.456 79.679 268.981 77.0838 268.981 73.9756L258.981 73.9756C258.981 71.6294 260.865 69.679 263.283 69.679L263.283 79.679ZM263.19 79.7718C263.191 79.7535 263.192 79.7412 263.194 79.7335C263.196 79.7255 263.198 79.7192 263.2 79.7139C263.205 79.7026 263.212 79.6923 263.22 79.6843C263.228 79.6765 263.232 79.6755 263.229 79.677C263.227 79.6778 263.224 79.6785 263.222 79.6789C263.22 79.6794 263.222 79.6786 263.23 79.6787L263.335 69.6793C257.723 69.6204 253.248 74.1506 253.191 79.6684L263.19 79.7718ZM257.492 85.4235C260.666 85.4235 263.191 82.8284 263.191 79.7201L253.191 79.7201C253.191 77.3739 255.075 75.4235 257.492 75.4235L257.492 85.4235ZM361.108 70.6462C363.526 70.6462 365.41 72.5966 365.41 74.9428L355.41 74.9428C355.41 78.051 357.935 80.6462 361.108 80.6462L361.108 70.6462ZM356.807 74.9428C356.807 72.5965 358.691 70.6462 361.108 70.6462L361.108 80.6462C364.282 80.6462 366.807 78.0511 366.807 74.9428L356.807 74.9428ZM366.951 64.9019C361.339 64.8431 356.864 69.3732 356.807 74.8911L366.806 74.9945C366.807 74.9761 366.809 74.9638 366.81 74.9561C366.812 74.9482 366.814 74.9419 366.816 74.9365C366.821 74.9253 366.828 74.915 366.836 74.907C366.844 74.8991 366.848 74.8982 366.845 74.8997C366.843 74.9005 366.84 74.9012 366.838 74.9016C366.836 74.902 366.838 74.9013 366.846 74.9014L366.951 64.9019ZM362.597 69.1983C362.597 66.852 364.482 64.9017 366.899 64.9017L366.899 74.9017C370.073 74.9017 372.597 72.3065 372.597 69.1983L362.597 69.1983ZM366.899 73.4948C364.481 73.4948 362.597 71.5444 362.597 69.1983L372.597 69.1983C372.597 66.0901 370.073 63.4948 366.899 63.4948L366.899 73.4948ZM356.807 63.506C356.864 68.9748 361.32 73.5537 366.951 73.4946L366.846 63.4951C366.843 63.4952 366.844 63.4949 366.849 63.4958C366.854 63.4967 366.857 63.498 366.86 63.4989C366.863 63.5005 366.856 63.4981 366.843 63.4856C366.831 63.4729 366.821 63.4577 366.815 63.4438C366.81 63.433 366.807 63.421 366.806 63.4015L356.807 63.506ZM361.108 67.7503C358.691 67.7503 356.807 65.8001 356.807 63.4537L366.807 63.4537C366.807 60.3454 364.282 57.7503 361.108 57.7503L361.108 67.7503ZM365.41 63.4537C365.41 65.8 363.526 67.7503 361.108 67.7503L361.108 57.7503C357.935 57.7503 355.41 60.3455 355.41 63.4537L365.41 63.4537ZM355.266 73.4946C360.877 73.5535 365.353 69.0233 365.41 63.5054L355.41 63.402C355.41 63.4204 355.408 63.4327 355.407 63.4404C355.405 63.4483 355.403 63.4546 355.4 63.46C355.396 63.4713 355.389 63.4816 355.38 63.4895C355.373 63.4974 355.368 63.4983 355.372 63.4968C355.374 63.496 355.376 63.4953 355.378 63.4949C355.381 63.4945 355.379 63.4952 355.37 63.4951L355.266 73.4946ZM359.62 69.1983C359.62 71.5444 357.735 73.4948 355.318 73.4948L355.318 63.4948C352.144 63.4948 349.62 66.0901 349.62 69.1983L359.62 69.1983ZM355.318 64.9017C357.735 64.9017 359.62 66.852 359.62 69.1983L349.62 69.1983C349.62 72.3065 352.144 74.9017 355.318 74.9017L355.318 64.9017ZM365.41 74.8911C365.353 69.3732 360.877 64.8431 355.266 64.9019L355.37 74.9014C355.379 74.9013 355.381 74.902 355.378 74.9016C355.376 74.9012 355.374 74.9005 355.372 74.8997C355.369 74.8982 355.373 74.8991 355.38 74.907C355.389 74.915 355.396 74.9253 355.4 74.9365C355.403 74.9419 355.405 74.9482 355.407 74.9561C355.408 74.9638 355.41 74.9761 355.41 74.9945L365.41 74.8911ZM330.731 77.8562C327.237 77.8562 324.45 80.7151 324.45 84.1458L334.45 84.1458C334.45 86.1696 332.828 87.8562 330.731 87.8562L330.731 77.8562ZM337.011 84.1458C337.011 80.7151 334.224 77.8562 330.731 77.8562L330.731 87.8562C328.633 87.8562 327.011 86.1696 327.011 84.1458L337.011 84.1458ZM341.177 88.2902C338.92 88.3033 337.024 86.4712 337.011 84.1172L327.011 84.1743C327.056 92.0198 333.424 98.3355 341.235 98.29L341.177 88.2902ZM347.486 94.5797C347.486 91.149 344.7 88.2901 341.206 88.2901L341.206 98.2901C339.109 98.2901 337.486 96.6035 337.486 94.5797L347.486 94.5797ZM341.206 100.869C344.7 100.869 347.486 98.0103 347.486 94.5797L337.486 94.5797C337.486 92.5559 339.109 90.8693 341.206 90.8693L341.206 100.869ZM337.011 105.042C337.024 102.707 338.931 100.856 341.177 100.869L341.235 90.8694C333.413 90.8238 327.056 97.1795 327.011 104.985L337.011 105.042ZM330.731 111.303C334.224 111.303 337.011 108.444 337.011 105.014L327.011 105.014C327.011 102.99 328.633 101.303 330.731 101.303L330.731 111.303ZM324.45 105.014C324.45 108.444 327.237 111.303 330.731 111.303L330.731 101.303C332.828 101.303 334.45 102.99 334.45 105.014L324.45 105.014ZM320.285 100.869C322.541 100.856 324.437 102.688 324.45 105.042L334.45 104.985C334.406 97.1396 328.038 90.8239 320.226 90.8694L320.285 100.869ZM313.975 94.5797C313.975 98.0103 316.762 100.869 320.256 100.869L320.256 90.8693C322.353 90.8693 323.975 92.5559 323.975 94.5797L313.975 94.5797ZM320.256 88.2901C316.762 88.2901 313.975 91.149 313.975 94.5797L323.975 94.5797C323.975 96.6035 322.353 98.2901 320.256 98.2901L320.256 88.2901ZM324.45 84.1171C324.437 86.4524 322.531 88.3033 320.285 88.2902L320.226 98.29C328.048 98.3356 334.405 91.9799 334.45 84.1744L324.45 84.1171ZM297.264 28.6055C297.264 29.8673 296.223 30.9677 294.883 30.9677L294.883 20.9677C290.632 20.9677 287.264 24.4129 287.264 28.6055L297.264 28.6055ZM273.409 52.3045C286.529 52.3789 297.153 41.7736 297.264 28.6475L287.264 28.5636C287.2 36.2467 281.005 42.3474 273.466 42.3046L273.409 52.3045ZM275.819 49.9424C275.819 51.2042 274.778 52.3046 273.438 52.3046L273.438 42.3046C269.187 42.3046 265.819 45.7497 265.819 49.9424L275.819 49.9424ZM273.438 47.5802C274.778 47.5802 275.819 48.6805 275.819 49.9424L265.819 49.9424C265.819 54.135 269.187 57.5802 273.438 57.5802L273.438 47.5802ZM297.264 71.2372C297.153 58.1111 286.529 47.5058 273.409 47.5802L273.466 57.5801C281.005 57.5373 287.2 63.638 287.264 71.3211L297.264 71.2372ZM294.883 68.917C296.223 68.917 297.264 70.0174 297.264 71.2792L287.264 71.2792C287.264 75.4719 290.632 78.917 294.883 78.917L294.883 68.917ZM292.501 71.2792C292.501 70.0174 293.542 68.917 294.883 68.917L294.883 78.917C299.133 78.917 302.501 75.4719 302.501 71.2792L292.501 71.2792ZM316.356 47.5802C303.236 47.5058 292.612 58.1111 292.502 71.2372L302.501 71.3211C302.566 63.638 308.76 57.5373 316.299 57.5801L316.356 47.5802ZM313.946 49.9424C313.946 48.6806 314.987 47.5802 316.327 47.5802L316.327 57.5802C320.578 57.5802 323.946 54.135 323.946 49.9424L313.946 49.9424ZM316.327 52.3046C314.987 52.3046 313.946 51.2042 313.946 49.9424L323.946 49.9424C323.946 45.7497 320.578 42.3046 316.327 42.3046L316.327 52.3046ZM292.502 28.6476C292.612 41.7392 303.231 52.379 316.356 52.3045L316.299 42.3046C308.765 42.3474 302.566 36.2226 302.501 28.5635L292.502 28.6476ZM294.883 30.9677C293.542 30.9677 292.501 29.8673 292.501 28.6055L302.501 28.6055C302.501 24.4129 299.133 20.9677 294.883 20.9677L294.883 30.9677Z" fill="white" mask="url(#path-2-inside-1)"/>
<mask id="path-4-inside-2" fill="white">
<path fill-rule="evenodd" clip-rule="evenodd" d="M25.8797 175.105C25.8797 175.483 26.2021 175.803 26.5831 175.803C29.3967 175.832 31.6535 178.102 31.6242 180.895C31.6242 181.273 31.9466 181.593 32.3276 181.593C32.7086 181.593 33.031 181.273 33.031 180.895C33.0017 178.102 35.2585 175.832 38.0722 175.803C38.4532 175.803 38.7756 175.483 38.7756 175.105C38.7756 174.726 38.4532 174.406 38.0722 174.406C35.2878 174.377 33.0017 172.107 33.031 169.314C33.031 168.936 32.7086 168.616 32.3276 168.616C31.9466 168.616 31.6242 168.936 31.6242 169.314C31.6535 172.107 29.3967 174.377 26.5831 174.406C26.2021 174.406 25.8797 174.726 25.8797 175.105ZM31.3604 72.1868C30.9794 72.1868 30.657 71.8668 30.657 71.4885C30.657 71.1102 30.9794 70.7901 31.3604 70.7901C34.1741 70.761 36.4309 68.4914 36.4016 65.6981C36.4016 65.3198 36.724 64.9998 37.105 64.9998C37.486 64.9998 37.8084 65.3198 37.8084 65.6981C37.7791 68.4914 40.0652 70.761 42.8495 70.7901C43.2305 70.7901 43.5529 71.1102 43.5529 71.4885C43.5529 71.8668 43.2305 72.1868 42.8495 72.1868C40.0359 72.2159 37.7791 74.4855 37.8084 77.2789C37.8084 77.6572 37.486 77.9772 37.105 77.9772C36.724 77.9772 36.4016 77.6572 36.4016 77.2789C36.4309 74.4855 34.1741 72.2159 31.3604 72.1868ZM22.1575 103.147C22.8609 103.147 23.4471 102.565 23.4471 101.866C23.4471 101.168 22.8609 100.586 22.1575 100.586C17.0577 100.557 12.9838 96.425 13.0131 91.3912C13.0131 90.6928 12.4269 90.1109 11.7235 90.1109C11.0201 90.1109 10.4339 90.6928 10.4339 91.3912C10.4632 96.425 6.36001 100.557 1.28959 100.586C0.586175 100.586 0 101.168 0 101.866C0 102.565 0.586175 103.147 1.28959 103.147C6.38932 103.176 10.4632 107.307 10.4339 112.341C10.4339 113.04 11.0201 113.622 11.7235 113.622C12.4269 113.622 13.0131 113.04 13.0131 112.341C12.9838 107.307 17.087 103.176 22.1575 103.147ZM80.3355 137.714C80.3355 139.169 79.1631 140.333 77.6977 140.333C67.2931 140.42 58.94 148.83 58.9987 159.159C58.9987 160.614 57.8263 161.778 56.3609 161.778C54.8954 161.778 53.7231 160.614 53.7231 159.159C53.7817 148.83 45.4287 140.42 35.024 140.333C33.5586 140.333 32.3862 139.169 32.3862 137.714C32.3862 136.259 33.5586 135.096 35.024 135.096C45.4287 135.008 53.7817 126.599 53.7231 116.269C53.7231 114.815 54.8954 113.651 56.3609 113.651C57.8263 113.651 58.9987 114.815 58.9987 116.269C58.94 126.599 67.3224 135.008 77.6977 135.096C79.1631 135.096 80.3355 136.259 80.3355 137.714Z"/>
</mask>
<path d="M26.5831 175.803V170.803H26.609L26.6348 170.803L26.5831 175.803ZM31.6242 180.895H26.6242V180.869L26.6245 180.842L31.6242 180.895ZM33.031 180.895L38.0308 180.842L38.031 180.869V180.895H33.031ZM38.0722 175.803L38.0205 170.803L38.0463 170.803H38.0722V175.803ZM38.0722 174.406V179.406H38.046L38.0199 179.406L38.0722 174.406ZM33.031 169.314H38.031V169.34L38.0308 169.367L33.031 169.314ZM31.6242 169.314L26.6245 169.367L26.6242 169.34V169.314H31.6242ZM26.5831 174.406L26.6348 179.406L26.609 179.406H26.5831V174.406ZM31.3604 72.1868V67.1868H31.3863L31.4121 67.1871L31.3604 72.1868ZM31.3604 70.7901L31.4121 75.7899L31.3863 75.7901H31.3604V70.7901ZM36.4016 65.6981L31.4018 65.7505L31.4016 65.7243V65.6981H36.4016ZM37.8084 65.6981H42.8084V65.7243L42.8081 65.7505L37.8084 65.6981ZM42.8495 70.7901V75.7901H42.8234L42.7972 75.7899L42.8495 70.7901ZM42.8495 72.1868L42.7978 67.1871L42.8236 67.1868H42.8495V72.1868ZM37.8084 77.2789L42.8081 77.2264L42.8084 77.2527V77.2789H37.8084ZM36.4016 77.2789H31.4016V77.2527L31.4018 77.2264L36.4016 77.2789ZM22.1575 103.147L22.1288 98.1466L22.1431 98.1465H22.1575V103.147ZM22.1575 100.586V105.586H22.1432L22.1289 105.586L22.1575 100.586ZM13.0131 91.3912H18.0131V91.4057L18.013 91.4203L13.0131 91.3912ZM10.4339 91.3912L5.43403 91.4203L5.43394 91.4057V91.3912H10.4339ZM1.28959 100.586L1.31828 105.586L1.30393 105.586H1.28959L1.28959 100.586ZM1.28959 103.147L1.28959 98.1465H1.30385L1.31811 98.1466L1.28959 103.147ZM10.4339 112.341H5.43394V112.327L5.43403 112.312L10.4339 112.341ZM13.0131 112.341L18.013 112.312L18.0131 112.327V112.341H13.0131ZM77.6977 140.333L77.6557 135.333L77.6767 135.333H77.6977V140.333ZM58.9987 159.159L63.9986 159.131L63.9987 159.145V159.159H58.9987ZM53.7231 159.159H48.7231V159.145L48.7232 159.131L53.7231 159.159ZM35.024 140.333V135.333H35.045L35.066 135.333L35.024 140.333ZM35.024 135.096L35.066 140.095L35.045 140.096H35.024V135.096ZM53.7231 116.269L48.7232 116.298L48.7231 116.284V116.269H53.7231ZM58.9987 116.269H63.9987V116.284L63.9986 116.298L58.9987 116.269ZM77.6977 135.096V140.096H77.6767L77.6556 140.095L77.6977 135.096ZM26.5831 180.803C23.4748 180.803 20.8797 178.278 20.8797 175.105H30.8797C30.8797 172.687 28.9293 170.803 26.5831 170.803V180.803ZM26.6245 180.842C26.6246 180.834 26.6239 180.832 26.6243 180.835C26.6247 180.836 26.6254 180.839 26.6262 180.841C26.6277 180.844 26.6268 180.84 26.6189 180.832C26.6109 180.824 26.6006 180.817 26.5893 180.812C26.584 180.81 26.5777 180.808 26.5698 180.806C26.5621 180.805 26.5498 180.803 26.5314 180.803L26.6348 170.803C32.1526 170.86 36.6828 175.335 36.6239 180.947L26.6245 180.842ZM32.3276 186.593C29.2194 186.593 26.6242 184.069 26.6242 180.895H36.6242C36.6242 178.478 34.6738 176.593 32.3276 176.593V186.593ZM38.031 180.895C38.031 184.069 35.4359 186.593 32.3276 186.593V176.593C29.9814 176.593 28.031 178.478 28.031 180.895H38.031ZM38.1239 180.803C38.1055 180.803 38.0932 180.805 38.0855 180.806C38.0776 180.808 38.0712 180.81 38.0659 180.812C38.0546 180.817 38.0443 180.824 38.0364 180.832C38.0285 180.84 38.0276 180.844 38.029 180.841C38.0299 180.839 38.0306 180.836 38.031 180.835C38.0314 180.832 38.0307 180.834 38.0308 180.842L28.0313 180.947C27.9724 175.335 32.5026 170.86 38.0205 170.803L38.1239 180.803ZM43.7756 175.105C43.7756 178.278 41.1804 180.803 38.0722 180.803V170.803C35.726 170.803 33.7756 172.687 33.7756 175.105H43.7756ZM38.0722 169.406C41.1804 169.406 43.7756 171.931 43.7756 175.105H33.7756C33.7756 177.522 35.726 179.406 38.0722 179.406V169.406ZM38.0308 169.367C38.0307 169.37 38.031 169.369 38.0301 169.364C38.0292 169.359 38.0279 169.356 38.027 169.353C38.0254 169.35 38.0278 169.357 38.0403 169.37C38.053 169.382 38.0682 169.392 38.0821 169.398C38.0929 169.403 38.1049 169.406 38.1244 169.406L38.0199 179.406C32.5511 179.349 27.9722 174.893 28.0313 169.262L38.0308 169.367ZM32.3276 163.616C35.4359 163.616 38.031 166.14 38.031 169.314H28.031C28.031 171.731 29.9814 173.616 32.3276 173.616V163.616ZM26.6242 169.314C26.6242 166.14 29.2194 163.616 32.3276 163.616V173.616C34.6738 173.616 36.6242 171.731 36.6242 169.314H26.6242ZM26.5314 169.406C26.5498 169.406 26.5621 169.404 26.5698 169.403C26.5777 169.401 26.584 169.399 26.5893 169.397C26.6006 169.392 26.6109 169.385 26.6189 169.377C26.6268 169.369 26.6277 169.365 26.6262 169.368C26.6254 169.37 26.6247 169.373 26.6243 169.375C26.6239 169.377 26.6246 169.375 26.6245 169.367L36.6239 169.262C36.6828 174.874 32.1526 179.349 26.6348 179.406L26.5314 169.406ZM20.8797 175.105C20.8797 171.931 23.4748 169.406 26.5831 169.406V179.406C28.9294 179.406 30.8797 177.522 30.8797 175.105H20.8797ZM35.657 71.4885C35.657 69.0712 33.7066 67.1868 31.3604 67.1868V77.1868C28.2522 77.1868 25.657 74.6623 25.657 71.4885H35.657ZM31.3604 75.7901C33.7067 75.7901 35.657 73.9057 35.657 71.4885H25.657C25.657 68.3148 28.2521 65.7901 31.3604 65.7901V75.7901ZM41.4013 65.6456C41.4602 71.2576 36.93 75.7328 31.4121 75.7899L31.3087 65.7904C31.3271 65.7902 31.3394 65.7883 31.3471 65.7867C31.355 65.785 31.3614 65.7829 31.3667 65.7806C31.378 65.7758 31.3883 65.7686 31.3962 65.7606C31.4041 65.7526 31.405 65.7486 31.4036 65.7522C31.4027 65.7541 31.402 65.7565 31.4016 65.7585C31.4012 65.7607 31.4019 65.7587 31.4018 65.7505L41.4013 65.6456ZM37.105 69.9998C39.4512 69.9998 41.4016 68.1153 41.4016 65.6981H31.4016C31.4016 62.5243 33.9967 59.9998 37.105 59.9998V69.9998ZM32.8084 65.6981C32.8084 68.1154 34.7588 69.9998 37.105 69.9998V59.9998C40.2132 59.9998 42.8084 62.5243 42.8084 65.6981H32.8084ZM42.7972 75.7899C37.3285 75.7327 32.7496 71.2766 32.8087 65.6456L42.8081 65.7505C42.8081 65.7542 42.8084 65.7527 42.8074 65.7478C42.8065 65.7433 42.8052 65.7395 42.8043 65.7373C42.8028 65.7336 42.8052 65.7409 42.8176 65.7535C42.8303 65.7663 42.8455 65.7762 42.8594 65.7822C42.8702 65.7869 42.8822 65.7902 42.9017 65.7904L42.7972 75.7899ZM38.5529 71.4885C38.5529 73.9056 40.5032 75.7901 42.8495 75.7901V65.7901C45.9579 65.7901 48.5529 68.3148 48.5529 71.4885H38.5529ZM42.8495 67.1868C40.5033 67.1868 38.5529 69.0713 38.5529 71.4885H48.5529C48.5529 74.6622 45.9578 77.1868 42.8495 77.1868V67.1868ZM32.8087 77.3313C32.7498 71.7194 37.28 67.2442 42.7978 67.1871L42.9012 77.1866C42.8828 77.1868 42.8705 77.1886 42.8628 77.1903C42.8549 77.192 42.8486 77.1941 42.8433 77.1964C42.832 77.2012 42.8217 77.2083 42.8137 77.2164C42.8058 77.2243 42.8049 77.2284 42.8064 77.2248C42.8072 77.2228 42.8079 77.2205 42.8083 77.2185C42.8087 77.2163 42.808 77.2183 42.8081 77.2264L32.8087 77.3313ZM37.105 72.9772C34.7588 72.9772 32.8084 74.8616 32.8084 77.2789H42.8084C42.8084 80.4527 40.2132 82.9772 37.105 82.9772V72.9772ZM41.4016 77.2789C41.4016 74.8617 39.4512 72.9772 37.105 72.9772V82.9772C33.9967 82.9772 31.4016 80.4526 31.4016 77.2789H41.4016ZM31.4121 67.1871C36.93 67.2442 41.4602 71.7194 41.4013 77.3313L31.4018 77.2264C31.4019 77.2183 31.4012 77.2163 31.4016 77.2185C31.402 77.2205 31.4027 77.2228 31.4036 77.2248C31.405 77.2284 31.4041 77.2243 31.3962 77.2164C31.3883 77.2083 31.378 77.2012 31.3667 77.1964C31.3614 77.1941 31.355 77.192 31.3471 77.1903C31.3394 77.1886 31.3271 77.1868 31.3087 77.1866L31.4121 67.1871ZM28.4471 101.866C28.4471 105.36 25.5881 108.147 22.1575 108.147V98.1465C20.1336 98.1465 18.4471 99.7691 18.4471 101.866H28.4471ZM22.1575 95.5859C25.5881 95.5859 28.4471 98.3724 28.4471 101.866H18.4471C18.4471 103.963 20.1336 105.586 22.1575 105.586V95.5859ZM18.013 91.4203C17.9999 93.6767 19.832 95.5726 22.186 95.586L22.1289 105.586C14.2835 105.541 7.96772 99.1733 8.0132 91.362L18.013 91.4203ZM11.7235 85.1109C15.1542 85.1109 18.0131 87.8973 18.0131 91.3912H8.01312C8.01312 93.4883 9.69969 95.1109 11.7235 95.1109V85.1109ZM5.43394 91.3912C5.43394 87.8973 8.29288 85.1109 11.7235 85.1109V95.1109C13.7474 95.1109 15.4339 93.4883 15.4339 91.3912H5.43394ZM1.26089 95.586C3.59627 95.5726 5.4471 93.6662 5.43403 91.4203L15.4339 91.362C15.4794 99.1839 9.12375 105.541 1.31828 105.586L1.26089 95.586ZM-5 101.866C-5 98.3724 -2.14107 95.5859 1.28959 95.5859L1.28959 105.586C3.31342 105.586 5 103.963 5 101.866H-5ZM1.28959 108.147C-2.14107 108.147 -5 105.36 -5 101.866H5C5 99.7691 3.31342 98.1465 1.28959 98.1465L1.28959 108.147ZM5.43403 112.312C5.44716 110.056 3.61506 108.16 1.26106 108.146L1.31811 98.1466C9.16359 98.1914 15.4793 104.559 15.4339 112.37L5.43403 112.312ZM11.7235 118.622C8.29288 118.622 5.43394 115.835 5.43394 112.341H15.4339C15.4339 110.244 13.7474 108.622 11.7235 108.622L11.7235 118.622ZM18.0131 112.341C18.0131 115.835 15.1542 118.622 11.7235 118.622L11.7235 108.622C9.69969 108.622 8.01312 110.244 8.01312 112.341H18.0131ZM22.1862 108.146C19.8508 108.16 18 110.066 18.013 112.312L8.0132 112.37C7.96766 104.549 14.3233 98.1914 22.1288 98.1466L22.1862 108.146ZM77.6977 135.333C76.4359 135.333 75.3355 136.374 75.3355 137.714H85.3355C85.3355 141.965 81.8904 145.333 77.6977 145.333V135.333ZM53.9987 159.187C53.9243 146.067 64.5296 135.443 77.6557 135.333L77.7396 145.333C70.0565 145.397 63.9558 151.592 63.9986 159.131L53.9987 159.187ZM56.3609 156.778C55.0991 156.778 53.9987 157.819 53.9987 159.159H63.9987C63.9987 163.409 60.5536 166.778 56.3609 166.778V156.778ZM58.7231 159.159C58.7231 157.819 57.6227 156.778 56.3609 156.778V166.778C52.1682 166.778 48.7231 163.409 48.7231 159.159H58.7231ZM35.066 135.333C48.1921 135.443 58.7974 146.067 58.723 159.187L48.7232 159.131C48.7659 151.592 42.6652 145.397 34.9821 145.333L35.066 135.333ZM37.3862 137.714C37.3862 136.374 36.2858 135.333 35.024 135.333V145.333C30.8314 145.333 27.3862 141.965 27.3862 137.714H37.3862ZM35.024 140.096C36.2858 140.096 37.3862 139.055 37.3862 137.714H27.3862C27.3862 133.464 30.8314 130.096 35.024 130.096V140.096ZM58.723 116.241C58.7974 129.361 48.1922 139.985 35.066 140.095L34.9821 130.096C42.6652 130.031 48.7659 123.837 48.7232 116.298L58.723 116.241ZM56.3609 118.651C57.6227 118.651 58.7231 117.61 58.7231 116.269H48.7231C48.7231 112.019 52.1682 108.651 56.3609 108.651V118.651ZM53.9987 116.269C53.9987 117.61 55.0991 118.651 56.3609 118.651V108.651C60.5535 108.651 63.9987 112.019 63.9987 116.269H53.9987ZM77.6556 140.095C64.564 139.985 53.9243 129.366 53.9987 116.241L63.9986 116.298C63.9558 123.832 70.0807 130.031 77.7398 130.096L77.6556 140.095ZM75.3355 137.714C75.3355 139.055 76.4359 140.096 77.6977 140.096V130.096C81.8904 130.096 85.3355 133.464 85.3355 137.714H75.3355Z" fill="white" mask="url(#path-4-inside-2)"/>
</svg>
