<svg width="402" height="257" viewBox="0 0 402 257" fill="none" xmlns="http://www.w3.org/2000/svg">
<mask id="path-1-inside-1" fill="white">
<path fill-rule="evenodd" clip-rule="evenodd" d="M280.61 24.5316C280.61 25.3229 281.25 25.9677 282.036 25.9677C282.821 25.9677 283.461 25.3229 283.461 24.5316C283.52 18.9043 288.059 14.3908 293.646 14.4201C294.431 14.4201 295.071 13.7753 295.071 12.9839C295.071 12.1926 294.431 11.5478 293.646 11.5478C288.059 11.5771 283.52 7.06355 283.461 1.43626C283.461 0.644921 282.821 0.000122674 282.036 0.00012264C281.25 0.000122606 280.61 0.644921 280.61 1.43626C280.552 7.06355 276.012 11.5771 270.426 11.5478C269.64 11.5478 269 12.1926 269 12.9839C269 13.7753 269.64 14.4201 270.426 14.4201C276.012 14.3908 280.552 18.9043 280.61 24.5316ZM291.492 80.4235C291.114 80.4235 290.794 80.1011 290.794 79.7201C290.765 76.9065 288.495 74.6497 285.702 74.679C285.324 74.679 285.004 74.3566 285.004 73.9756C285.004 73.5946 285.324 73.2722 285.702 73.2722C288.495 73.3015 290.765 71.0447 290.794 68.2311C290.794 67.85 291.114 67.5276 291.492 67.5276C291.871 67.5276 292.191 67.85 292.191 68.2311C292.22 71.0154 294.489 73.3015 297.283 73.2722C297.661 73.2722 297.981 73.5946 297.981 73.9756C297.981 74.3566 297.661 74.679 297.283 74.679C294.489 74.6497 292.22 76.9065 292.191 79.7201C292.191 80.1011 291.871 80.4235 291.492 80.4235ZM394.41 74.9428C394.41 75.3238 394.73 75.6462 395.108 75.6462C395.487 75.6462 395.807 75.3238 395.807 74.9428C395.836 72.1291 398.105 69.8724 400.899 69.9017C401.277 69.9017 401.597 69.5793 401.597 69.1983C401.597 68.8172 401.277 68.4948 400.899 68.4948C398.105 68.5242 395.836 66.2381 395.807 63.4537C395.807 63.0727 395.487 62.7503 395.108 62.7503C394.73 62.7503 394.41 63.0727 394.41 63.4537C394.381 66.2674 392.111 68.5242 389.318 68.4948C388.94 68.4948 388.62 68.8172 388.62 69.1983C388.62 69.5793 388.94 69.9017 389.318 69.9017C392.111 69.8724 394.381 72.1291 394.41 74.9428ZM363.45 84.1458C363.45 83.4423 364.032 82.8562 364.731 82.8562C365.429 82.8562 366.011 83.4423 366.011 84.1458C366.04 89.2455 370.172 93.3194 375.206 93.2901C375.904 93.2901 376.486 93.8763 376.486 94.5797C376.486 95.2831 375.904 95.8693 375.206 95.8693C370.172 95.84 366.04 99.9432 366.011 105.014C366.011 105.717 365.429 106.303 364.731 106.303C364.032 106.303 363.45 105.717 363.45 105.014C363.421 99.9139 359.289 95.84 354.256 95.8693C353.557 95.8693 352.975 95.2831 352.975 94.5797C352.975 93.8763 353.557 93.2901 354.256 93.2901C359.289 93.3194 363.421 89.2162 363.45 84.1458ZM328.883 25.9677C327.428 25.9677 326.264 27.1401 326.264 28.6055C326.177 39.0102 317.767 47.3632 307.438 47.3046C305.983 47.3046 304.819 48.4769 304.819 49.9424C304.819 51.4078 305.983 52.5802 307.438 52.5802C317.767 52.5215 326.177 60.8745 326.264 71.2792C326.264 72.7446 327.428 73.917 328.883 73.917C330.337 73.917 331.501 72.7446 331.501 71.2792C331.589 60.8745 339.998 52.5215 350.327 52.5802C351.782 52.5802 352.946 51.4078 352.946 49.9424C352.946 48.4769 351.782 47.3046 350.327 47.3046C339.998 47.3632 331.589 38.9809 331.501 28.6055C331.501 27.1401 330.337 25.9677 328.883 25.9677Z"/>
</mask>
<path d="M280.61 24.5316L285.61 24.5316L285.61 24.5058L285.61 24.4799L280.61 24.5316ZM283.461 24.5316L278.462 24.4799L278.461 24.5058L278.461 24.5316L283.461 24.5316ZM293.646 14.4201L293.619 19.42L293.632 19.4201L293.646 19.4201L293.646 14.4201ZM293.646 11.5478L293.646 6.54781L293.632 6.54781L293.619 6.54788L293.646 11.5478ZM283.461 1.43626L278.461 1.43626L278.461 1.46211L278.462 1.48796L283.461 1.43626ZM280.61 1.43626L285.61 1.48796L285.61 1.46211L285.61 1.43626L280.61 1.43626ZM270.426 11.5478L270.452 6.54787L270.439 6.54781L270.426 6.54781L270.426 11.5478ZM270.426 14.4201L270.426 19.4201L270.439 19.4201L270.452 19.42L270.426 14.4201ZM290.794 79.7201L295.794 79.7201L295.794 79.6943L295.794 79.6684L290.794 79.7201ZM285.702 74.679L285.702 79.679L285.728 79.679L285.754 79.6787L285.702 74.679ZM285.702 73.2722L285.754 68.2725L285.728 68.2722L285.702 68.2722L285.702 73.2722ZM290.794 68.2311L295.794 68.2828L295.794 68.2569L295.794 68.2311L290.794 68.2311ZM292.191 68.2311L287.191 68.2311L287.191 68.2572L287.191 68.2833L292.191 68.2311ZM297.283 73.2722L297.283 68.2722L297.256 68.2722L297.23 68.2725L297.283 73.2722ZM297.283 74.679L297.23 79.6787L297.256 79.679L297.283 79.679L297.283 74.679ZM292.191 79.7201L287.191 79.6684L287.191 79.6943L287.191 79.7201L292.191 79.7201ZM394.41 74.9428L399.41 74.9428L399.41 74.9169L399.41 74.8911L394.41 74.9428ZM395.807 74.9428L390.807 74.8911L390.807 74.9169L390.807 74.9428L395.807 74.9428ZM400.899 69.9017L400.846 74.9014L400.873 74.9017L400.899 74.9017L400.899 69.9017ZM400.899 68.4948L400.899 63.4948L400.873 63.4948L400.846 63.4951L400.899 68.4948ZM395.807 63.4537L390.807 63.4537L390.807 63.4799L390.807 63.506L395.807 63.4537ZM394.41 63.4537L399.41 63.5054L399.41 63.4796L399.41 63.4537L394.41 63.4537ZM389.318 68.4948L389.37 63.4951L389.344 63.4948L389.318 63.4948L389.318 68.4948ZM389.318 69.9017L389.318 74.9017L389.344 74.9017L389.37 74.9014L389.318 69.9017ZM363.45 84.1458L368.45 84.1744L368.45 84.1601L368.45 84.1458L363.45 84.1458ZM366.011 84.1458L361.011 84.1458L361.011 84.16L361.011 84.1743L366.011 84.1458ZM375.206 93.2901L375.206 88.2901L375.191 88.2901L375.177 88.2902L375.206 93.2901ZM375.206 95.8693L375.177 100.869L375.191 100.869L375.206 100.869L375.206 95.8693ZM366.011 105.014L361.011 104.985L361.011 104.999L361.011 105.014L366.011 105.014ZM363.45 105.014L368.45 105.014L368.45 104.999L368.45 104.985L363.45 105.014ZM354.256 95.8693L354.256 100.869L354.27 100.869L354.285 100.869L354.256 95.8693ZM354.256 93.2901L354.285 88.2902L354.27 88.2901L354.256 88.2901L354.256 93.2901ZM326.264 28.6055L331.264 28.6475L331.264 28.6265L331.264 28.6055L326.264 28.6055ZM307.438 47.3046L307.466 42.3046L307.452 42.3046L307.438 42.3046L307.438 47.3046ZM307.438 52.5802L307.438 57.5802L307.452 57.5802L307.466 57.5801L307.438 52.5802ZM326.264 71.2792L331.264 71.2792L331.264 71.2582L331.264 71.2372L326.264 71.2792ZM331.501 71.2792L326.502 71.2372L326.501 71.2582L326.501 71.2792L331.501 71.2792ZM350.327 52.5802L350.299 57.5801L350.313 57.5802L350.327 57.5802L350.327 52.5802ZM350.327 47.3046L350.327 42.3046L350.313 42.3046L350.299 42.3046L350.327 47.3046ZM331.501 28.6055L326.501 28.6055L326.501 28.6266L326.502 28.6476L331.501 28.6055ZM282.036 20.9677C284.046 20.9677 285.61 22.5957 285.61 24.5316L275.61 24.5316C275.61 28.0502 278.455 30.9677 282.036 30.9677L282.036 20.9677ZM278.461 24.5316C278.461 22.5957 280.026 20.9677 282.036 20.9677L282.036 30.9677C285.617 30.9677 288.461 28.0502 288.461 24.5316L278.461 24.5316ZM293.672 9.42014C285.292 9.37617 278.548 16.1432 278.462 24.4799L288.461 24.5833C288.491 21.6654 290.826 19.4053 293.619 19.42L293.672 9.42014ZM290.071 12.9839C290.071 11.0481 291.636 9.42007 293.646 9.42007L293.646 19.4201C297.227 19.4201 300.071 16.5025 300.071 12.9839L290.071 12.9839ZM293.646 16.5478C291.636 16.5478 290.071 14.9199 290.071 12.9839L300.071 12.9839C300.071 9.46529 297.227 6.54781 293.646 6.54781L293.646 16.5478ZM278.462 1.48796C278.548 9.82468 285.292 16.5917 293.672 16.5477L293.619 6.54788C290.826 6.56253 288.491 4.30243 288.461 1.38455L278.462 1.48796ZM282.036 5.00012C280.026 5.00012 278.461 3.37214 278.461 1.43626L288.461 1.43626C288.461 -2.0823 285.617 -4.99988 282.036 -4.99988L282.036 5.00012ZM285.61 1.43626C285.61 3.37215 284.046 5.00012 282.036 5.00012L282.036 -4.99988C278.455 -4.99988 275.61 -2.08231 275.61 1.43626L285.61 1.43626ZM270.4 16.5477C278.779 16.5917 285.523 9.82468 285.61 1.48796L275.61 1.38455C275.58 4.30243 273.246 6.56253 270.452 6.54787L270.4 16.5477ZM274 12.9839C274 14.9199 272.436 16.5478 270.426 16.5478L270.426 6.54781C266.845 6.54781 264 9.46529 264 12.9839L274 12.9839ZM270.426 9.42007C272.436 9.42007 274 11.0481 274 12.9839L264 12.9839C264 16.5024 266.845 19.4201 270.426 19.4201L270.426 9.42007ZM285.61 24.4799C285.523 16.1432 278.779 9.37617 270.4 9.42014L270.452 19.42C273.246 19.4053 275.58 21.6654 275.61 24.5833L285.61 24.4799ZM285.794 79.7201C285.794 82.8284 288.319 85.4235 291.492 85.4235L291.492 75.4235C293.91 75.4235 295.794 77.3739 295.794 79.7201L285.794 79.7201ZM285.754 79.6787C285.763 79.6786 285.765 79.6794 285.762 79.6789C285.76 79.6785 285.758 79.6778 285.756 79.677C285.752 79.6755 285.756 79.6765 285.764 79.6843C285.772 79.6923 285.78 79.7026 285.784 79.7139C285.787 79.7192 285.789 79.7255 285.791 79.7335C285.792 79.7412 285.794 79.7535 285.794 79.7718L295.794 79.6684C295.737 74.1506 291.261 69.6204 285.649 69.6793L285.754 79.6787ZM280.004 73.9756C280.004 77.0838 282.528 79.679 285.702 79.679L285.702 69.679C288.119 69.679 290.004 71.6294 290.004 73.9756L280.004 73.9756ZM285.702 68.2722C282.528 68.2722 280.004 70.8673 280.004 73.9756L290.004 73.9756C290.004 76.3218 288.119 78.2722 285.702 78.2722L285.702 68.2722ZM285.794 68.1794C285.794 68.1977 285.792 68.21 285.791 68.2177C285.789 68.2257 285.787 68.232 285.784 68.2373C285.78 68.2486 285.772 68.2589 285.764 68.2669C285.756 68.2747 285.752 68.2757 285.756 68.2742C285.758 68.2734 285.76 68.2726 285.762 68.2723C285.765 68.2718 285.763 68.2725 285.754 68.2725L285.649 78.2719C291.261 78.3308 295.737 73.8006 295.794 68.2828L285.794 68.1794ZM291.492 62.5276C288.319 62.5276 285.794 65.1228 285.794 68.2311L295.794 68.2311C295.794 70.5773 293.91 72.5277 291.492 72.5276L291.492 62.5276ZM297.191 68.2311C297.191 65.1228 294.666 62.5277 291.492 62.5276L291.492 72.5276C289.075 72.5276 287.191 70.5773 287.191 68.2311L297.191 68.2311ZM297.23 68.2725C297.227 68.2725 297.228 68.2722 297.233 68.2732C297.238 68.2741 297.241 68.2753 297.243 68.2762C297.247 68.2778 297.24 68.2754 297.227 68.2629C297.215 68.2502 297.205 68.2351 297.199 68.2212C297.194 68.2103 297.191 68.1984 297.19 68.1788L287.191 68.2833C287.248 73.7521 291.704 78.331 297.335 78.2719L297.23 68.2725ZM302.981 73.9756C302.981 70.8673 300.456 68.2722 297.283 68.2722L297.283 78.2722C294.866 78.2722 292.981 76.3218 292.981 73.9756L302.981 73.9756ZM297.283 79.679C300.456 79.679 302.981 77.0838 302.981 73.9756L292.981 73.9756C292.981 71.6294 294.865 69.679 297.283 69.679L297.283 79.679ZM297.19 79.7718C297.191 79.7535 297.192 79.7412 297.194 79.7335C297.196 79.7255 297.198 79.7192 297.2 79.7139C297.205 79.7026 297.212 79.6923 297.22 79.6843C297.228 79.6765 297.232 79.6755 297.229 79.677C297.227 79.6778 297.224 79.6785 297.222 79.6789C297.22 79.6794 297.222 79.6786 297.23 79.6787L297.335 69.6793C291.723 69.6204 287.248 74.1506 287.191 79.6684L297.19 79.7718ZM291.492 85.4235C294.666 85.4235 297.191 82.8284 297.191 79.7201L287.191 79.7201C287.191 77.3739 289.075 75.4235 291.492 75.4235L291.492 85.4235ZM395.108 70.6462C397.526 70.6462 399.41 72.5966 399.41 74.9428L389.41 74.9428C389.41 78.051 391.935 80.6462 395.108 80.6462L395.108 70.6462ZM390.807 74.9428C390.807 72.5965 392.691 70.6462 395.108 70.6462L395.108 80.6462C398.282 80.6462 400.807 78.0511 400.807 74.9428L390.807 74.9428ZM400.951 64.9019C395.339 64.8431 390.864 69.3732 390.807 74.8911L400.806 74.9945C400.807 74.9761 400.809 74.9638 400.81 74.9561C400.812 74.9482 400.814 74.9419 400.816 74.9365C400.821 74.9253 400.828 74.915 400.836 74.907C400.844 74.8991 400.848 74.8982 400.845 74.8997C400.843 74.9005 400.84 74.9012 400.838 74.9016C400.836 74.902 400.838 74.9013 400.846 74.9014L400.951 64.9019ZM396.597 69.1983C396.597 66.852 398.482 64.9017 400.899 64.9017L400.899 74.9017C404.073 74.9017 406.597 72.3065 406.597 69.1983L396.597 69.1983ZM400.899 73.4948C398.481 73.4948 396.597 71.5444 396.597 69.1983L406.597 69.1983C406.597 66.0901 404.073 63.4948 400.899 63.4948L400.899 73.4948ZM390.807 63.506C390.864 68.9748 395.32 73.5537 400.951 73.4946L400.846 63.4951C400.843 63.4952 400.844 63.4949 400.849 63.4958C400.854 63.4967 400.857 63.498 400.86 63.4989C400.863 63.5005 400.856 63.4981 400.843 63.4856C400.831 63.4729 400.821 63.4577 400.815 63.4438C400.81 63.433 400.807 63.421 400.806 63.4015L390.807 63.506ZM395.108 67.7503C392.691 67.7503 390.807 65.8001 390.807 63.4537L400.807 63.4537C400.807 60.3454 398.282 57.7503 395.108 57.7503L395.108 67.7503ZM399.41 63.4537C399.41 65.8 397.526 67.7503 395.108 67.7503L395.108 57.7503C391.935 57.7503 389.41 60.3455 389.41 63.4537L399.41 63.4537ZM389.266 73.4946C394.877 73.5535 399.353 69.0233 399.41 63.5054L389.41 63.402C389.41 63.4204 389.408 63.4327 389.407 63.4404C389.405 63.4483 389.403 63.4546 389.4 63.46C389.396 63.4713 389.389 63.4816 389.38 63.4895C389.373 63.4974 389.368 63.4983 389.372 63.4968C389.374 63.496 389.376 63.4953 389.378 63.4949C389.381 63.4945 389.379 63.4952 389.37 63.4951L389.266 73.4946ZM393.62 69.1983C393.62 71.5444 391.735 73.4948 389.318 73.4948L389.318 63.4948C386.144 63.4948 383.62 66.0901 383.62 69.1983L393.62 69.1983ZM389.318 64.9017C391.735 64.9017 393.62 66.852 393.62 69.1983L383.62 69.1983C383.62 72.3065 386.144 74.9017 389.318 74.9017L389.318 64.9017ZM399.41 74.8911C399.353 69.3732 394.877 64.8431 389.266 64.9019L389.37 74.9014C389.379 74.9013 389.381 74.902 389.378 74.9016C389.376 74.9012 389.374 74.9005 389.372 74.8997C389.369 74.8982 389.373 74.8991 389.38 74.907C389.389 74.915 389.396 74.9253 389.4 74.9365C389.403 74.9419 389.405 74.9482 389.407 74.9561C389.408 74.9638 389.41 74.9761 389.41 74.9945L399.41 74.8911ZM364.731 77.8562C361.237 77.8562 358.45 80.7151 358.45 84.1458L368.45 84.1458C368.45 86.1696 366.828 87.8562 364.731 87.8562L364.731 77.8562ZM371.011 84.1458C371.011 80.7151 368.224 77.8562 364.731 77.8562L364.731 87.8562C362.633 87.8562 361.011 86.1696 361.011 84.1458L371.011 84.1458ZM375.177 88.2902C372.92 88.3033 371.024 86.4712 371.011 84.1172L361.011 84.1743C361.056 92.0198 367.424 98.3355 375.235 98.29L375.177 88.2902ZM381.486 94.5797C381.486 91.149 378.7 88.2901 375.206 88.2901L375.206 98.2901C373.109 98.2901 371.486 96.6035 371.486 94.5797L381.486 94.5797ZM375.206 100.869C378.7 100.869 381.486 98.0103 381.486 94.5797L371.486 94.5797C371.486 92.5559 373.109 90.8693 375.206 90.8693L375.206 100.869ZM371.011 105.042C371.024 102.707 372.931 100.856 375.177 100.869L375.235 90.8694C367.413 90.8238 361.056 97.1795 361.011 104.985L371.011 105.042ZM364.731 111.303C368.224 111.303 371.011 108.444 371.011 105.014L361.011 105.014C361.011 102.99 362.633 101.303 364.731 101.303L364.731 111.303ZM358.45 105.014C358.45 108.444 361.237 111.303 364.731 111.303L364.731 101.303C366.828 101.303 368.45 102.99 368.45 105.014L358.45 105.014ZM354.285 100.869C356.541 100.856 358.437 102.688 358.45 105.042L368.45 104.985C368.406 97.1396 362.038 90.8239 354.226 90.8694L354.285 100.869ZM347.975 94.5797C347.975 98.0103 350.762 100.869 354.256 100.869L354.256 90.8693C356.353 90.8693 357.975 92.5559 357.975 94.5797L347.975 94.5797ZM354.256 88.2901C350.762 88.2901 347.975 91.149 347.975 94.5797L357.975 94.5797C357.975 96.6035 356.353 98.2901 354.256 98.2901L354.256 88.2901ZM358.45 84.1171C358.437 86.4524 356.531 88.3033 354.285 88.2902L354.226 98.29C362.048 98.3356 368.405 91.9799 368.45 84.1744L358.45 84.1171ZM331.264 28.6055C331.264 29.8673 330.223 30.9677 328.883 30.9677L328.883 20.9677C324.632 20.9677 321.264 24.4129 321.264 28.6055L331.264 28.6055ZM307.409 52.3045C320.529 52.3789 331.153 41.7736 331.264 28.6475L321.264 28.5636C321.2 36.2467 315.005 42.3474 307.466 42.3046L307.409 52.3045ZM309.819 49.9424C309.819 51.2042 308.778 52.3046 307.438 52.3046L307.438 42.3046C303.187 42.3046 299.819 45.7497 299.819 49.9424L309.819 49.9424ZM307.438 47.5802C308.778 47.5802 309.819 48.6805 309.819 49.9424L299.819 49.9424C299.819 54.135 303.187 57.5802 307.438 57.5802L307.438 47.5802ZM331.264 71.2372C331.153 58.1111 320.529 47.5058 307.409 47.5802L307.466 57.5801C315.005 57.5373 321.2 63.638 321.264 71.3211L331.264 71.2372ZM328.883 68.917C330.223 68.917 331.264 70.0174 331.264 71.2792L321.264 71.2792C321.264 75.4719 324.632 78.917 328.883 78.917L328.883 68.917ZM326.501 71.2792C326.501 70.0174 327.542 68.917 328.883 68.917L328.883 78.917C333.133 78.917 336.501 75.4719 336.501 71.2792L326.501 71.2792ZM350.356 47.5802C337.236 47.5058 326.612 58.1111 326.502 71.2372L336.501 71.3211C336.566 63.638 342.76 57.5373 350.299 57.5801L350.356 47.5802ZM347.946 49.9424C347.946 48.6806 348.987 47.5802 350.327 47.5802L350.327 57.5802C354.578 57.5802 357.946 54.135 357.946 49.9424L347.946 49.9424ZM350.327 52.3046C348.987 52.3046 347.946 51.2042 347.946 49.9424L357.946 49.9424C357.946 45.7497 354.578 42.3046 350.327 42.3046L350.327 52.3046ZM326.502 28.6476C326.612 41.7392 337.231 52.379 350.356 52.3045L350.299 42.3046C342.765 42.3474 336.566 36.2226 336.501 28.5635L326.502 28.6476ZM328.883 30.9677C327.542 30.9677 326.501 29.8673 326.501 28.6055L336.501 28.6055C336.501 24.4129 333.133 20.9677 328.883 20.9677L328.883 30.9677Z" fill="white" mask="url(#path-1-inside-1)"/>
<mask id="path-3-inside-2" fill="white">
<path fill-rule="evenodd" clip-rule="evenodd" d="M6.48873 160.88C6.11046 160.88 5.79039 161.202 5.79039 161.583C5.76129 164.397 3.49169 166.654 0.698338 166.624C0.320071 166.624 -1.39643e-06 166.947 -1.41309e-06 167.328C-1.42974e-06 167.709 0.320071 168.031 0.698338 168.031C3.49169 168.002 5.76129 170.259 5.79039 173.072C5.79039 173.453 6.11046 173.776 6.48873 173.776C6.867 173.776 7.18707 173.453 7.18707 173.072C7.21617 170.288 9.48577 168.002 12.2791 168.031C12.6574 168.031 12.9775 167.709 12.9775 167.328C12.9775 166.947 12.6574 166.624 12.2791 166.624C9.48577 166.654 7.21617 164.397 7.18707 161.583C7.18707 161.202 6.867 160.88 6.48873 160.88ZM109.406 166.36C109.406 165.979 109.727 165.657 110.105 165.657C110.483 165.657 110.803 165.979 110.803 166.36C110.832 169.174 113.102 171.431 115.895 171.402C116.273 171.402 116.594 171.724 116.594 172.105C116.594 172.486 116.273 172.808 115.895 172.808C113.102 172.779 110.832 175.065 110.803 177.85C110.803 178.231 110.483 178.553 110.105 178.553C109.726 178.553 109.406 178.231 109.406 177.85C109.377 175.036 107.108 172.779 104.314 172.808C103.936 172.808 103.616 172.486 103.616 172.105C103.616 171.724 103.936 171.402 104.314 171.402C107.108 171.431 109.377 169.174 109.406 166.36ZM78.4467 157.157C78.4467 157.861 79.0287 158.447 79.727 158.447C80.4254 158.447 81.0073 157.861 81.0073 157.157C81.0364 152.058 85.1683 147.984 90.2021 148.013C90.9005 148.013 91.4824 147.427 91.4824 146.724C91.4824 146.02 90.9005 145.434 90.2021 145.434C85.1683 145.463 81.0364 141.36 81.0073 136.29C81.0073 135.586 80.4254 135 79.727 135C79.0287 135 78.4467 135.586 78.4467 136.29C78.4176 141.389 74.2858 145.463 69.2519 145.434C68.5536 145.434 67.9717 146.02 67.9717 146.724C67.9717 147.427 68.5536 148.013 69.2519 148.013C74.2858 147.984 78.4176 152.087 78.4467 157.157ZM43.879 215.335C42.4241 215.335 41.2602 214.163 41.2602 212.698C41.1729 202.293 32.7637 193.94 22.4341 193.999C20.9793 193.999 19.8154 192.826 19.8154 191.361C19.8154 189.895 20.9793 188.723 22.4341 188.723C32.7637 188.782 41.1729 180.429 41.2602 170.024C41.2602 168.559 42.4241 167.386 43.879 167.386C45.3338 167.386 46.4977 168.559 46.4977 170.024C46.585 180.429 54.9942 188.782 65.3238 188.723C66.7787 188.723 67.9426 189.895 67.9426 191.361C67.9426 192.826 66.7787 193.999 65.3238 193.999C54.9942 193.94 46.585 202.322 46.4977 212.698C46.4977 214.163 45.3338 215.335 43.879 215.335Z"/>
</mask>
<path d="M5.79039 161.583L10.7904 161.583L10.7904 161.609L10.7901 161.635L5.79039 161.583ZM0.698338 166.624L0.698338 161.624L0.724568 161.624L0.750796 161.624L0.698338 166.624ZM0.698338 168.031L0.750803 173.031L0.724571 173.031L0.698338 173.031L0.698338 168.031ZM5.79039 173.072L10.7901 173.02L10.7904 173.046L10.7904 173.072L5.79039 173.072ZM7.18707 173.072L2.18707 173.072L2.18707 173.046L2.18734 173.02L7.18707 173.072ZM12.2791 168.031L12.2791 173.031L12.2529 173.031L12.2267 173.031L12.2791 168.031ZM12.2791 166.624L12.2267 161.624L12.2529 161.624L12.2791 161.624L12.2791 166.624ZM7.18707 161.583L2.18734 161.635L2.18707 161.609L2.18707 161.583L7.18707 161.583ZM109.406 166.36L114.406 166.36L114.406 166.386L114.406 166.412L109.406 166.36ZM110.803 166.36L105.803 166.412L105.803 166.386L105.803 166.36L110.803 166.36ZM115.895 171.402L115.843 166.402L115.869 166.402L115.895 166.402L115.895 171.402ZM115.895 172.808L115.895 177.808L115.869 177.808L115.843 177.808L115.895 172.808ZM110.803 177.85L105.803 177.85L105.803 177.823L105.803 177.797L110.803 177.85ZM109.406 177.85L114.406 177.798L114.406 177.824L114.406 177.85L109.406 177.85ZM104.314 172.808L104.367 177.808L104.341 177.808L104.314 177.808L104.314 172.808ZM104.314 171.402L104.314 166.402L104.341 166.402L104.367 166.402L104.314 171.402ZM78.4467 157.157L83.4467 157.129L83.4467 157.143L83.4467 157.157L78.4467 157.157ZM81.0073 157.157L76.0073 157.157L76.0073 157.143L76.0074 157.129L81.0073 157.157ZM90.2021 148.013L90.2021 153.013L90.1876 153.013L90.173 153.013L90.2021 148.013ZM90.2021 145.434L90.173 140.434L90.1876 140.434L90.2021 140.434L90.2021 145.434ZM81.0073 136.29L76.0074 136.318L76.0073 136.304L76.0073 136.29L81.0073 136.29ZM78.4467 136.29L83.4467 136.29L83.4467 136.304L83.4467 136.318L78.4467 136.29ZM69.2519 145.434L69.2519 140.434L69.2665 140.434L69.2811 140.434L69.2519 145.434ZM69.2519 148.013L69.2811 153.013L69.2665 153.013L69.2519 153.013L69.2519 148.013ZM41.2602 212.698L46.26 212.656L46.2602 212.677L46.2602 212.698L41.2602 212.698ZM22.4341 193.999L22.4625 198.999L22.4483 198.999L22.4341 198.999L22.4341 193.999ZM22.4341 188.723L22.4341 183.723L22.4483 183.723L22.4625 183.723L22.4341 188.723ZM41.2602 170.024L46.2602 170.024L46.2602 170.045L46.26 170.066L41.2602 170.024ZM46.4977 170.024L41.4979 170.066L41.4977 170.045L41.4977 170.024L46.4977 170.024ZM65.3238 188.723L65.2954 183.723L65.3096 183.723L65.3238 183.723L65.3238 188.723ZM65.3238 193.999L65.3238 198.999L65.3096 198.999L65.2954 198.999L65.3238 193.999ZM46.4977 212.698L41.4977 212.698L41.4977 212.677L41.4979 212.656L46.4977 212.698ZM0.790393 161.583C0.790393 158.475 3.31499 155.88 6.48873 155.88L6.48873 165.88C8.90594 165.88 10.7904 163.929 10.7904 161.583L0.790393 161.583ZM0.750796 161.624C0.758932 161.625 0.760966 161.624 0.758719 161.624C0.756764 161.625 0.754379 161.625 0.752422 161.626C0.748854 161.628 0.75289 161.627 0.760839 161.619C0.768873 161.611 0.776003 161.601 0.780844 161.589C0.783132 161.584 0.785262 161.578 0.78695 161.57C0.788582 161.562 0.79047 161.55 0.79066 161.531L10.7901 161.635C10.7331 167.153 6.25783 171.683 0.64588 171.624L0.750796 161.624ZM-5 167.328C-5 164.219 -2.47543 161.624 0.698338 161.624L0.698338 171.624C3.11557 171.624 5 169.674 5 167.328L-5 167.328ZM0.698338 173.031C-2.4754 173.031 -5 170.436 -5 167.328L5 167.328C5 164.981 3.11554 163.031 0.698338 163.031L0.698338 173.031ZM0.79066 173.124C0.79047 173.105 0.788582 173.093 0.78695 173.086C0.785261 173.078 0.783131 173.071 0.780843 173.066C0.776002 173.055 0.768873 173.044 0.760839 173.036C0.752891 173.028 0.748856 173.028 0.752424 173.029C0.754382 173.03 0.756768 173.031 0.758723 173.031C0.760971 173.031 0.758937 173.031 0.750803 173.031L0.645874 163.031C6.25783 162.972 10.7331 167.503 10.7901 173.02L0.79066 173.124ZM6.48873 178.776C3.31494 178.776 0.790392 176.18 0.790392 173.072L10.7904 173.072C10.7904 170.726 8.90598 168.776 6.48873 168.776L6.48873 178.776ZM12.1871 173.072C12.1871 176.18 9.6625 178.776 6.48873 178.776L6.48873 168.776C4.0715 168.776 2.18707 170.726 2.18707 173.072L12.1871 173.072ZM12.2267 173.031C12.223 173.031 12.2245 173.031 12.2294 173.03C12.2339 173.029 12.2377 173.028 12.2399 173.027C12.2436 173.025 12.2363 173.028 12.2237 173.04C12.211 173.053 12.201 173.068 12.195 173.082C12.1903 173.093 12.187 173.105 12.1868 173.124L2.18734 173.02C2.24449 167.551 6.70058 162.972 12.3316 163.031L12.2267 173.031ZM17.9775 167.328C17.9775 170.436 15.4529 173.031 12.2791 173.031L12.2791 163.031C9.86192 163.031 7.97746 164.981 7.97746 167.328L17.9775 167.328ZM12.2791 161.624C15.4529 161.624 17.9775 164.219 17.9775 167.328L7.97746 167.328C7.97746 169.674 9.86189 171.624 12.2791 171.624L12.2791 161.624ZM12.1868 161.531C12.187 161.55 12.1889 161.562 12.1905 161.57C12.1922 161.578 12.1943 161.584 12.1966 161.589C12.2015 161.601 12.2086 161.611 12.2166 161.619C12.2246 161.627 12.2286 161.628 12.225 161.626C12.2231 161.625 12.2207 161.625 12.2187 161.624C12.2165 161.624 12.2185 161.625 12.2267 161.624L12.3316 171.624C6.71963 171.683 2.2444 167.153 2.18734 161.635L12.1868 161.531ZM6.48873 155.88C9.66246 155.88 12.1871 158.475 12.1871 161.583L2.18707 161.583C2.18707 163.929 4.07154 165.88 6.48873 165.88L6.48873 155.88ZM110.105 170.657C112.522 170.657 114.406 168.707 114.406 166.36L104.406 166.36C104.406 163.252 106.931 160.657 110.105 160.657L110.105 170.657ZM105.803 166.36C105.803 168.707 107.688 170.657 110.105 170.657L110.105 160.657C113.278 160.657 115.803 163.252 115.803 166.36L105.803 166.36ZM115.948 176.401C110.336 176.46 105.86 171.93 105.803 166.412L115.803 166.309C115.803 166.327 115.805 166.339 115.807 166.347C115.808 166.355 115.81 166.361 115.813 166.367C115.818 166.378 115.825 166.388 115.833 166.396C115.841 166.404 115.845 166.405 115.841 166.404C115.839 166.403 115.837 166.402 115.835 166.402C115.833 166.401 115.835 166.402 115.843 166.402L115.948 176.401ZM111.594 172.105C111.594 174.451 113.478 176.402 115.895 176.402L115.895 166.402C119.069 166.402 121.594 168.997 121.594 172.105L111.594 172.105ZM115.895 167.808C113.478 167.808 111.594 169.759 111.594 172.105L121.594 172.105C121.594 175.213 119.069 177.808 115.895 177.808L115.895 167.808ZM105.803 177.797C105.861 172.328 110.317 167.75 115.948 167.809L115.843 177.808C115.839 177.808 115.841 177.808 115.845 177.807C115.85 177.807 115.854 177.805 115.856 177.804C115.86 177.803 115.852 177.805 115.84 177.818C115.827 177.83 115.817 177.846 115.811 177.859C115.806 177.87 115.803 177.882 115.803 177.902L105.803 177.797ZM110.105 173.553C107.688 173.553 105.803 175.503 105.803 177.85L115.803 177.85C115.803 180.958 113.278 183.553 110.105 183.553L110.105 173.553ZM114.406 177.85C114.406 175.503 112.522 173.553 110.105 173.553L110.105 183.553C106.931 183.553 104.406 180.958 104.406 177.85L114.406 177.85ZM104.262 167.809C109.874 167.75 114.349 172.28 114.406 177.798L104.407 177.901C104.407 177.883 104.405 177.871 104.403 177.863C104.401 177.855 104.399 177.849 104.397 177.843C104.392 177.832 104.385 177.822 104.377 177.814C104.369 177.806 104.365 177.805 104.368 177.806C104.37 177.807 104.373 177.808 104.375 177.808C104.377 177.809 104.375 177.808 104.367 177.808L104.262 167.809ZM108.616 172.105C108.616 169.759 106.732 167.808 104.314 167.808L104.314 177.808C101.141 177.808 98.616 175.213 98.616 172.105L108.616 172.105ZM104.314 176.402C106.732 176.402 108.616 174.451 108.616 172.105L98.616 172.105C98.616 168.997 101.141 166.402 104.314 166.402L104.314 176.402ZM114.406 166.412C114.349 171.93 109.874 176.46 104.262 176.401L104.367 166.402C104.375 166.402 104.377 166.401 104.375 166.402C104.373 166.402 104.37 166.403 104.368 166.404C104.365 166.405 104.369 166.404 104.377 166.396C104.385 166.388 104.392 166.378 104.397 166.367C104.399 166.361 104.401 166.355 104.403 166.347C104.405 166.339 104.407 166.327 104.407 166.309L114.406 166.412ZM79.727 163.447C76.2332 163.447 73.4467 160.588 73.4467 157.157L83.4467 157.157C83.4467 155.134 81.8242 153.447 79.727 153.447L79.727 163.447ZM86.0073 157.157C86.0073 160.588 83.2209 163.447 79.727 163.447L79.727 153.447C77.6299 153.447 76.0073 155.134 76.0073 157.157L86.0073 157.157ZM90.173 153.013C87.9166 153 86.0207 154.832 86.0072 157.186L76.0074 157.129C76.0522 149.283 82.4199 142.968 90.2312 143.013L90.173 153.013ZM96.4824 146.724C96.4824 150.154 93.6959 153.013 90.2021 153.013L90.2021 143.013C88.105 143.013 86.4824 144.7 86.4824 146.724L96.4824 146.724ZM90.2021 140.434C93.6959 140.434 96.4824 143.293 96.4824 146.724L86.4824 146.724C86.4824 148.747 88.105 150.434 90.2021 150.434L90.2021 140.434ZM86.0072 136.261C86.0206 138.596 87.9271 140.447 90.173 140.434L90.2312 150.434C82.4094 150.479 76.0522 144.124 76.0074 136.318L86.0072 136.261ZM79.727 130C83.2208 130 86.0073 132.859 86.0073 136.29L76.0073 136.29C76.0073 138.313 77.6299 140 79.727 140L79.727 130ZM73.4467 136.29C73.4467 132.859 76.2332 130 79.727 130L79.727 140C81.8242 140 83.4467 138.313 83.4467 136.29L73.4467 136.29ZM69.2811 140.434C71.5375 140.447 73.4334 138.615 73.4468 136.261L83.4467 136.318C83.4019 144.164 77.0341 150.479 69.2228 150.434L69.2811 140.434ZM62.9717 146.724C62.9717 143.293 65.7581 140.434 69.2519 140.434L69.2519 150.434C71.3491 150.434 72.9717 148.747 72.9717 146.724L62.9717 146.724ZM69.2519 153.013C65.7581 153.013 62.9717 150.154 62.9717 146.724L72.9717 146.724C72.9717 144.7 71.3491 143.013 69.2519 143.013L69.2519 153.013ZM73.4468 157.186C73.4334 154.851 71.527 153 69.2811 153.013L69.2228 143.013C77.0446 142.968 83.4019 149.323 83.4467 157.129L73.4468 157.186ZM46.2602 212.698C46.2602 211.436 45.2196 210.335 43.879 210.335L43.879 220.335C39.6286 220.335 36.2602 216.89 36.2602 212.698L46.2602 212.698ZM22.4058 188.999C35.5258 188.924 46.1499 199.53 46.26 212.656L36.2604 212.74C36.1959 205.057 30.0017 198.956 22.4625 198.999L22.4058 188.999ZM24.8154 191.361C24.8154 190.099 23.7747 188.999 22.4341 188.999L22.4341 198.999C18.1838 198.999 14.8154 195.554 14.8154 191.361L24.8154 191.361ZM22.4341 193.723C23.7747 193.723 24.8154 192.623 24.8154 191.361L14.8154 191.361C14.8154 187.168 18.1838 183.723 22.4341 183.723L22.4341 193.723ZM46.26 170.066C46.1499 183.192 35.5258 193.797 22.4058 193.723L22.4625 183.723C30.0017 183.766 36.1959 177.665 36.2604 169.982L46.26 170.066ZM43.879 172.386C45.2196 172.386 46.2602 171.286 46.2602 170.024L36.2602 170.024C36.2602 165.831 39.6286 162.386 43.879 162.386L43.879 172.386ZM41.4977 170.024C41.4977 171.286 42.5384 172.386 43.879 172.386L43.879 162.386C48.1293 162.386 51.4977 165.831 51.4977 170.024L41.4977 170.024ZM65.3522 193.723C52.2321 193.797 41.608 183.192 41.4979 170.066L51.4976 169.982C51.562 177.665 57.7563 183.766 65.2954 183.723L65.3522 193.723ZM62.9426 191.361C62.9426 192.623 63.9832 193.723 65.3238 193.723L65.3238 183.723C69.5742 183.723 72.9426 187.168 72.9426 191.361L62.9426 191.361ZM65.3238 188.999C63.9832 188.999 62.9426 190.099 62.9426 191.361L72.9426 191.361C72.9426 195.554 69.5741 198.999 65.3238 198.999L65.3238 188.999ZM41.4979 212.656C41.6081 199.564 52.227 188.924 65.3522 188.999L65.2954 198.999C57.7614 198.956 51.562 205.081 51.4976 212.74L41.4979 212.656ZM43.879 210.335C42.5383 210.335 41.4977 211.436 41.4977 212.698L51.4977 212.698C51.4977 216.89 48.1293 220.335 43.879 220.335L43.879 210.335Z" fill="white" mask="url(#path-3-inside-2)"/>
<mask id="path-5-inside-3" fill="white">
<path d="M315.397 152.653C313.199 150.714 310.551 149.413 307.737 148.839C306.755 146.602 305.29 144.624 303.483 143.03V137.468C303.483 114.993 294.673 93.8048 278.676 77.8079C262.678 61.8099 241.49 53 219.014 53C196.539 53 175.351 61.8099 159.354 77.8075C143.356 93.8052 134.546 114.993 134.546 137.468C134.546 137.468 134.557 196.824 134.575 197.01C133.825 198.12 133.188 199.314 132.686 200.576C123.797 202.057 117 209.803 117 219.107C117 224.491 119.314 229.622 123.347 233.184C125.989 235.517 129.205 237.036 132.613 237.622C135.331 244.707 142.226 249.711 150.164 249.711C152.999 249.711 155.768 249.061 158.273 247.861C162.314 253.483 168.884 257 176.208 257C183.532 257 190.101 253.483 194.143 247.861C196.648 249.061 199.416 249.711 202.252 249.711C210.189 249.711 217.084 244.707 219.803 237.622C223.21 237.036 226.427 235.517 229.069 233.184C233.102 229.621 235.416 224.49 235.416 219.107C235.416 213.72 233.1 208.587 229.062 205.023C226.403 202.677 223.162 201.155 219.731 200.58C216.957 193.593 210.09 188.661 202.252 188.661C199.482 188.661 196.773 189.286 194.312 190.436V137.469C194.312 123.848 205.394 112.766 219.015 112.766C232.636 112.766 243.718 123.848 243.718 137.469V139.92C239.53 141.497 236.104 144.731 234.301 148.835C226.742 150.37 221.036 157.067 221.036 165.072C221.036 169.819 223.076 174.344 226.633 177.486C228.814 179.412 231.44 180.709 234.231 181.29C236.765 187.25 242.693 191.408 249.488 191.408C251.698 191.408 253.862 190.961 255.859 190.126C259.419 194.642 264.919 197.434 271.018 197.434C277.118 197.434 282.617 194.642 286.177 190.126C288.175 190.961 290.339 191.408 292.549 191.408C299.344 191.408 305.272 187.25 307.806 181.29C310.597 180.709 313.223 179.412 315.403 177.486C318.96 174.344 321 169.819 321 165.072C321 160.322 318.958 155.795 315.397 152.653ZM219.014 64.9531C259 64.9531 291.53 97.4836 291.53 137.468V138.902C289.688 139.017 287.89 139.439 286.21 140.136C284.411 137.854 282.115 135.994 279.511 134.706C278.062 102.589 251.483 76.9062 219.014 76.9062C185.62 76.9062 158.452 104.075 158.452 137.469V189.935C158.452 190.02 158.461 190.102 158.465 190.186C158.388 190.289 158.306 190.388 158.231 190.492C155.736 189.305 152.982 188.661 150.164 188.661C148.913 188.661 147.688 188.788 146.5 189.027V137.468C146.499 97.4836 179.03 64.9531 219.014 64.9531ZM196.754 203.387C198.061 201.625 200.064 200.614 202.252 200.614C205.785 200.614 208.777 203.366 209.062 206.881C209.194 208.505 209.985 210.006 211.25 211.035C212.515 212.063 214.145 212.53 215.763 212.327C217.745 212.077 219.658 212.667 221.152 213.986C222.642 215.3 223.462 217.119 223.462 219.107C223.462 221.094 222.643 222.912 221.155 224.226C219.662 225.544 217.75 226.135 215.769 225.888C214.137 225.685 212.498 226.163 211.23 227.206C209.963 228.25 209.181 229.77 209.068 231.408C208.822 234.969 205.828 237.758 202.251 237.758C200.054 237.758 198.045 236.74 196.74 234.966C195.356 233.083 193.001 232.181 190.711 232.655C188.422 233.13 186.62 234.896 186.099 237.175C185.058 241.736 180.897 245.047 176.208 245.047C171.519 245.047 167.358 241.736 166.316 237.175C165.795 234.896 163.993 233.13 161.705 232.655C161.299 232.571 160.893 232.53 160.489 232.53C158.612 232.53 156.815 233.416 155.675 234.965C154.37 236.74 152.361 237.758 150.164 237.758C146.587 237.758 143.593 234.968 143.347 231.408C143.234 229.77 142.452 228.25 141.185 227.206C139.917 226.162 138.275 225.685 136.647 225.888C134.665 226.135 132.753 225.544 131.26 224.225C129.773 222.911 128.953 221.094 128.953 219.107C128.953 215.338 132.019 212.273 135.787 212.273C136.076 212.273 136.366 212.291 136.651 212.326C138.272 212.529 139.899 212.063 141.165 211.035C142.43 210.007 143.22 208.506 143.352 206.881C143.638 203.367 146.63 200.614 150.164 200.614C152.351 200.614 154.354 201.625 155.66 203.387C157.055 205.269 159.42 206.163 161.711 205.674C164.001 205.184 165.795 203.403 166.299 201.115C167.314 196.509 171.481 193.167 176.208 193.167C180.934 193.167 185.101 196.51 186.116 201.115C186.62 203.403 188.414 205.185 190.704 205.674C192.995 206.162 195.36 205.27 196.754 203.387ZM219.014 100.813C198.802 100.813 182.358 117.257 182.358 137.469V182.109C180.391 181.531 178.327 181.214 176.207 181.214C174.213 181.214 172.267 181.496 170.405 182.01V137.469C170.405 110.665 192.211 88.8594 219.014 88.8594C244.331 88.8594 265.185 108.315 267.421 133.059C262.805 133.949 258.685 136.507 255.825 140.137C255.774 140.116 255.722 140.097 255.67 140.077V137.469C255.671 117.257 239.227 100.813 219.014 100.813ZM307.49 168.527C306.906 169.043 305.656 169.874 303.851 169.65C302.222 169.447 300.58 169.923 299.313 170.967C298.045 172.011 297.263 173.531 297.15 175.169C296.984 177.572 294.963 179.455 292.548 179.455C291.065 179.455 289.708 178.767 288.826 177.568C287.44 175.685 285.085 174.782 282.796 175.258C280.507 175.733 278.705 177.499 278.185 179.778C277.43 183.083 274.416 185.481 271.018 185.481C267.619 185.481 264.604 183.082 263.849 179.778C263.328 177.499 261.527 175.733 259.238 175.258C258.833 175.174 258.426 175.133 258.023 175.133C256.146 175.133 254.348 176.019 253.208 177.569C252.327 178.768 250.97 179.455 249.487 179.455C247.072 179.455 245.051 177.572 244.884 175.169C244.772 173.531 243.99 172.011 242.722 170.967C241.455 169.924 239.816 169.447 238.184 169.65C236.379 169.872 235.129 169.043 234.545 168.527C233.964 168.013 232.988 166.881 232.988 165.072C232.988 162.527 235.057 160.458 237.602 160.458C237.797 160.458 237.996 160.47 238.19 160.494C239.808 160.699 241.437 160.23 242.702 159.202C243.967 158.174 244.757 156.673 244.888 155.049C245.081 152.678 247.101 150.82 249.487 150.82C250.963 150.82 252.317 151.503 253.199 152.694C254.594 154.576 256.958 155.469 259.249 154.98C261.54 154.49 263.333 152.709 263.837 150.422C264.573 147.085 267.592 144.663 271.018 144.663C274.443 144.663 277.462 147.085 278.197 150.421C278.701 152.708 280.495 154.49 282.785 154.98C285.074 155.467 287.441 154.575 288.836 152.694C289.719 151.503 291.071 150.82 292.548 150.82C294.934 150.82 296.953 152.678 297.146 155.049C297.278 156.673 298.068 158.174 299.333 159.202C300.599 160.23 302.228 160.696 303.846 160.494C305.651 160.266 306.903 161.1 307.488 161.615C308.07 162.129 309.047 163.262 309.047 165.072C309.047 166.881 308.072 168.013 307.49 168.527Z"/>
</mask>
<path d="M315.397 152.653C313.199 150.714 310.551 149.413 307.737 148.839C306.755 146.602 305.29 144.624 303.483 143.03V137.468C303.483 114.993 294.673 93.8048 278.676 77.8079C262.678 61.8099 241.49 53 219.014 53C196.539 53 175.351 61.8099 159.354 77.8075C143.356 93.8052 134.546 114.993 134.546 137.468C134.546 137.468 134.557 196.824 134.575 197.01C133.825 198.12 133.188 199.314 132.686 200.576C123.797 202.057 117 209.803 117 219.107C117 224.491 119.314 229.622 123.347 233.184C125.989 235.517 129.205 237.036 132.613 237.622C135.331 244.707 142.226 249.711 150.164 249.711C152.999 249.711 155.768 249.061 158.273 247.861C162.314 253.483 168.884 257 176.208 257C183.532 257 190.101 253.483 194.143 247.861C196.648 249.061 199.416 249.711 202.252 249.711C210.189 249.711 217.084 244.707 219.803 237.622C223.21 237.036 226.427 235.517 229.069 233.184C233.102 229.621 235.416 224.49 235.416 219.107C235.416 213.72 233.1 208.587 229.062 205.023C226.403 202.677 223.162 201.155 219.731 200.58C216.957 193.593 210.09 188.661 202.252 188.661C199.482 188.661 196.773 189.286 194.312 190.436V137.469C194.312 123.848 205.394 112.766 219.015 112.766C232.636 112.766 243.718 123.848 243.718 137.469V139.92C239.53 141.497 236.104 144.731 234.301 148.835C226.742 150.37 221.036 157.067 221.036 165.072C221.036 169.819 223.076 174.344 226.633 177.486C228.814 179.412 231.44 180.709 234.231 181.29C236.765 187.25 242.693 191.408 249.488 191.408C251.698 191.408 253.862 190.961 255.859 190.126C259.419 194.642 264.919 197.434 271.018 197.434C277.118 197.434 282.617 194.642 286.177 190.126C288.175 190.961 290.339 191.408 292.549 191.408C299.344 191.408 305.272 187.25 307.806 181.29C310.597 180.709 313.223 179.412 315.403 177.486C318.96 174.344 321 169.819 321 165.072C321 160.322 318.958 155.795 315.397 152.653ZM219.014 64.9531C259 64.9531 291.53 97.4836 291.53 137.468V138.902C289.688 139.017 287.89 139.439 286.21 140.136C284.411 137.854 282.115 135.994 279.511 134.706C278.062 102.589 251.483 76.9062 219.014 76.9062C185.62 76.9062 158.452 104.075 158.452 137.469V189.935C158.452 190.02 158.461 190.102 158.465 190.186C158.388 190.289 158.306 190.388 158.231 190.492C155.736 189.305 152.982 188.661 150.164 188.661C148.913 188.661 147.688 188.788 146.5 189.027V137.468C146.499 97.4836 179.03 64.9531 219.014 64.9531ZM196.754 203.387C198.061 201.625 200.064 200.614 202.252 200.614C205.785 200.614 208.777 203.366 209.062 206.881C209.194 208.505 209.985 210.006 211.25 211.035C212.515 212.063 214.145 212.53 215.763 212.327C217.745 212.077 219.658 212.667 221.152 213.986C222.642 215.3 223.462 217.119 223.462 219.107C223.462 221.094 222.643 222.912 221.155 224.226C219.662 225.544 217.75 226.135 215.769 225.888C214.137 225.685 212.498 226.163 211.23 227.206C209.963 228.25 209.181 229.77 209.068 231.408C208.822 234.969 205.828 237.758 202.251 237.758C200.054 237.758 198.045 236.74 196.74 234.966C195.356 233.083 193.001 232.181 190.711 232.655C188.422 233.13 186.62 234.896 186.099 237.175C185.058 241.736 180.897 245.047 176.208 245.047C171.519 245.047 167.358 241.736 166.316 237.175C165.795 234.896 163.993 233.13 161.705 232.655C161.299 232.571 160.893 232.53 160.489 232.53C158.612 232.53 156.815 233.416 155.675 234.965C154.37 236.74 152.361 237.758 150.164 237.758C146.587 237.758 143.593 234.968 143.347 231.408C143.234 229.77 142.452 228.25 141.185 227.206C139.917 226.162 138.275 225.685 136.647 225.888C134.665 226.135 132.753 225.544 131.26 224.225C129.773 222.911 128.953 221.094 128.953 219.107C128.953 215.338 132.019 212.273 135.787 212.273C136.076 212.273 136.366 212.291 136.651 212.326C138.272 212.529 139.899 212.063 141.165 211.035C142.43 210.007 143.22 208.506 143.352 206.881C143.638 203.367 146.63 200.614 150.164 200.614C152.351 200.614 154.354 201.625 155.66 203.387C157.055 205.269 159.42 206.163 161.711 205.674C164.001 205.184 165.795 203.403 166.299 201.115C167.314 196.509 171.481 193.167 176.208 193.167C180.934 193.167 185.101 196.51 186.116 201.115C186.62 203.403 188.414 205.185 190.704 205.674C192.995 206.162 195.36 205.27 196.754 203.387ZM219.014 100.813C198.802 100.813 182.358 117.257 182.358 137.469V182.109C180.391 181.531 178.327 181.214 176.207 181.214C174.213 181.214 172.267 181.496 170.405 182.01V137.469C170.405 110.665 192.211 88.8594 219.014 88.8594C244.331 88.8594 265.185 108.315 267.421 133.059C262.805 133.949 258.685 136.507 255.825 140.137C255.774 140.116 255.722 140.097 255.67 140.077V137.469C255.671 117.257 239.227 100.813 219.014 100.813ZM307.49 168.527C306.906 169.043 305.656 169.874 303.851 169.65C302.222 169.447 300.58 169.923 299.313 170.967C298.045 172.011 297.263 173.531 297.15 175.169C296.984 177.572 294.963 179.455 292.548 179.455C291.065 179.455 289.708 178.767 288.826 177.568C287.44 175.685 285.085 174.782 282.796 175.258C280.507 175.733 278.705 177.499 278.185 179.778C277.43 183.083 274.416 185.481 271.018 185.481C267.619 185.481 264.604 183.082 263.849 179.778C263.328 177.499 261.527 175.733 259.238 175.258C258.833 175.174 258.426 175.133 258.023 175.133C256.146 175.133 254.348 176.019 253.208 177.569C252.327 178.768 250.97 179.455 249.487 179.455C247.072 179.455 245.051 177.572 244.884 175.169C244.772 173.531 243.99 172.011 242.722 170.967C241.455 169.924 239.816 169.447 238.184 169.65C236.379 169.872 235.129 169.043 234.545 168.527C233.964 168.013 232.988 166.881 232.988 165.072C232.988 162.527 235.057 160.458 237.602 160.458C237.797 160.458 237.996 160.47 238.19 160.494C239.808 160.699 241.437 160.23 242.702 159.202C243.967 158.174 244.757 156.673 244.888 155.049C245.081 152.678 247.101 150.82 249.487 150.82C250.963 150.82 252.317 151.503 253.199 152.694C254.594 154.576 256.958 155.469 259.249 154.98C261.54 154.49 263.333 152.709 263.837 150.422C264.573 147.085 267.592 144.663 271.018 144.663C274.443 144.663 277.462 147.085 278.197 150.421C278.701 152.708 280.495 154.49 282.785 154.98C285.074 155.467 287.441 154.575 288.836 152.694C289.719 151.503 291.071 150.82 292.548 150.82C294.934 150.82 296.953 152.678 297.146 155.049C297.278 156.673 298.068 158.174 299.333 159.202C300.599 160.23 302.228 160.696 303.846 160.494C305.651 160.266 306.903 161.1 307.488 161.615C308.07 162.129 309.047 163.262 309.047 165.072C309.047 166.881 308.072 168.013 307.49 168.527Z" fill="white" stroke="#FFCB66" stroke-width="6" mask="url(#path-5-inside-3)"/>
</svg>
