<svg width="19" height="16" viewBox="0 0 19 16" fill="none" xmlns="http://www.w3.org/2000/svg">
<path d="M17.9673 8.66096H1.14666C0.724609 8.66096 0.38208 8.27849 0.38208 7.80722C0.38208 7.33595 0.724609 6.95348 1.14666 6.95348H17.9673C18.3894 6.95348 18.7319 7.33595 18.7319 7.80722C18.7319 8.27849 18.3894 8.66096 17.9673 8.66096Z" fill="black"/>
<path d="M17.9673 2.1157H1.14666C0.724609 2.1157 0.38208 1.73322 0.38208 1.26195C0.38208 0.79068 0.724609 0.408203 1.14666 0.408203H17.9673C18.3894 0.408203 18.7319 0.79068 18.7319 1.26195C18.7319 1.73322 18.3894 2.1157 17.9673 2.1157Z" fill="black"/>
<path d="M17.9673 15.2064H1.14666C0.724609 15.2064 0.38208 14.824 0.38208 14.3527C0.38208 13.8814 0.724609 13.4989 1.14666 13.4989H17.9673C18.3894 13.4989 18.7319 13.8814 18.7319 14.3527C18.7319 14.824 18.3894 15.2064 17.9673 15.2064Z" fill="black"/>
</svg>
