<svg width="16" height="16" viewBox="0 0 16 16" fill="none" xmlns="http://www.w3.org/2000/svg">
<path d="M9.08323 7.84759L14.8454 2.08528C15.2204 1.71047 15.2204 1.10444 14.8454 0.729628C14.4706 0.354813 13.8645 0.354813 13.4897 0.729628L7.72741 6.49194L1.96526 0.729628C1.59027 0.354813 0.984427 0.354813 0.609612 0.729628C0.234622 1.10444 0.234622 1.71047 0.609612 2.08528L6.37175 7.84759L0.609612 13.6099C0.234622 13.9847 0.234622 14.5907 0.609612 14.9656C0.796405 15.1525 1.04201 15.2465 1.28744 15.2465C1.53287 15.2465 1.7783 15.1525 1.96526 14.9656L7.72741 9.20325L13.4897 14.9656C13.6767 15.1525 13.9221 15.2465 14.1675 15.2465C14.413 15.2465 14.6584 15.1525 14.8454 14.9656C15.2204 14.5907 15.2204 13.9847 14.8454 13.6099L9.08323 7.84759Z" fill="black"/>
</svg>
